<svg width="24" height="24" viewBox="0 0 24 24" fill="none" xmlns="http://www.w3.org/2000/svg">
<path d="M22.08 14.7254C21.8325 14.7254 21.5951 14.627 21.42 14.452C21.245 14.277 21.1467 14.0396 21.1467 13.792V2.85336H10.208C9.96046 2.85336 9.72306 2.75503 9.54803 2.57999C9.37299 2.40496 9.27466 2.16756 9.27466 1.92003C9.27466 1.67249 9.37299 1.4351 9.54803 1.26006C9.72306 1.08503 9.96046 0.986694 10.208 0.986694L22.08 0.986694C22.3275 0.986694 22.5649 1.08503 22.74 1.26006C22.915 1.4351 23.0133 1.67249 23.0133 1.92003V13.792C23.0133 14.0396 22.915 14.277 22.74 14.452C22.5649 14.627 22.3275 14.7254 22.08 14.7254Z" fill="#E1E3EF"/>
<path d="M1.91997 23.0133C1.7973 23.0137 1.67575 22.9899 1.56233 22.9431C1.44892 22.8963 1.34589 22.8276 1.25917 22.7408C1.08544 22.5647 0.988037 22.3273 0.988037 22.08C0.988037 21.8326 1.08544 21.5952 1.25917 21.4192L21.4192 1.25919C21.5944 1.08393 21.8321 0.985474 22.08 0.985474C22.3278 0.985474 22.5655 1.08393 22.7408 1.25919C22.916 1.43444 23.0145 1.67214 23.0145 1.91999C23.0145 2.16783 22.916 2.40553 22.7408 2.58079L2.58077 22.7408C2.49406 22.8276 2.39103 22.8963 2.27762 22.9431C2.1642 22.9899 2.04265 23.0137 1.91997 23.0133Z" fill="#E1E3EF"/>
</svg>
