<svg width="20" height="20" viewBox="0 0 20 20" fill="none" xmlns="http://www.w3.org/2000/svg">
<path d="M14.0907 17.8666C13.6439 17.8671 13.2027 17.7668 12.8 17.5733C10.5488 16.4911 8.49748 15.0349 6.73334 13.2666C4.96505 11.5025 3.50884 9.45118 2.42668 7.19997C2.15892 6.63705 2.07233 6.00495 2.17883 5.39076C2.28534 4.77658 2.57969 4.21053 3.02134 3.77063L4.46134 2.32797C4.58678 2.20326 4.75647 2.13328 4.93334 2.1333V2.1333C5.11022 2.13328 5.27991 2.20326 5.40534 2.32797L8.83468 5.75997C8.89668 5.82167 8.94588 5.89501 8.97945 5.97578C9.01303 6.05655 9.03031 6.14316 9.03031 6.23063C9.03031 6.31811 9.01303 6.40471 8.97945 6.48549C8.94588 6.56626 8.89668 6.6396 8.83468 6.7013L7.59734 7.93863C8.1388 8.85549 8.79374 9.70038 9.54668 10.4533C10.299 11.2069 11.144 11.8619 12.0613 12.4026L13.2987 11.1653C13.3604 11.1033 13.4337 11.0541 13.5145 11.0205C13.5953 10.987 13.6819 10.9697 13.7693 10.9697C13.8568 10.9697 13.9434 10.987 14.0242 11.0205C14.105 11.0541 14.1783 11.1033 14.24 11.1653L17.672 14.5946C17.7961 14.7204 17.8657 14.89 17.8657 15.0666C17.8657 15.2433 17.7961 15.4129 17.672 15.5386L16.2293 16.9786C15.9487 17.2599 15.6153 17.4831 15.2484 17.6355C14.8814 17.7878 14.488 17.8664 14.0907 17.8666ZM4.93334 3.7333L3.96268 4.71197C3.71648 4.95723 3.55225 5.27271 3.49257 5.61507C3.43288 5.95742 3.48066 6.30986 3.62934 6.62397C4.64616 8.73842 6.01398 10.6653 7.67468 12.3226C9.33272 13.9845 11.2605 15.3532 13.376 16.3706C13.6903 16.5194 14.043 16.5669 14.3855 16.5068C14.7279 16.4466 15.0433 16.2816 15.288 16.0346L16.2667 15.0666L13.7787 12.5786L12.656 13.7013C12.5539 13.8058 12.4204 13.8739 12.2758 13.8951C12.1313 13.9163 11.9838 13.8894 11.856 13.8186C10.659 13.1739 9.5629 12.3572 8.60268 11.3946C7.63931 10.4351 6.82255 9.33889 6.17868 8.1413C6.10788 8.01352 6.08102 7.86602 6.10222 7.72148C6.12342 7.57695 6.19151 7.44337 6.29601 7.3413L7.41868 6.21597L4.93334 3.7333Z" fill="#A9ADC6"/>
</svg>
