<svg width="54" height="54" viewBox="0 0 54 54" fill="none" xmlns="http://www.w3.org/2000/svg">
<path d="M1.43338 33.5345C11.0199 35.687 18.6053 43.2724 20.7578 52.8589C20.8014 53.0526 20.9098 53.2258 21.0649 53.3498C21.22 53.4738 21.4127 53.5414 21.6113 53.5414C21.8099 53.5414 22.0026 53.4738 22.1578 53.3498C22.3129 53.2258 22.4212 53.0526 22.4649 52.8589C24.6174 43.2724 32.2036 35.687 41.7893 33.5345C41.983 33.4908 42.1561 33.3825 42.2802 33.2274C42.4042 33.0723 42.4718 32.8796 42.4718 32.681C42.4718 32.4823 42.4042 32.2896 42.2802 32.1345C42.1561 31.9794 41.983 31.8711 41.7893 31.8274C32.2028 29.6749 24.6174 22.0886 22.4649 12.503C22.4208 12.3097 22.3124 12.1371 22.1574 12.0134C22.0024 11.8898 21.81 11.8224 21.6118 11.8224C21.4135 11.8224 21.2211 11.8898 21.0661 12.0134C20.9111 12.1371 20.8027 12.3097 20.7586 12.503C18.6061 22.0895 11.0199 29.6749 1.43338 31.8274C1.24006 31.8714 1.06744 31.9799 0.943794 32.1349C0.820147 32.2899 0.752808 32.4822 0.752808 32.6805C0.752808 32.8788 0.820147 33.0712 0.943794 33.2262C1.06744 33.3812 1.24006 33.4905 1.43338 33.5345ZM21.6109 15.8718C24.3496 23.7091 30.5831 29.9418 38.4196 32.6805C30.5831 35.4193 24.3496 41.6519 21.6109 49.4893C18.8721 41.6519 12.6404 35.4193 4.80213 32.6805C12.6404 29.9418 18.8721 23.7091 21.6109 15.8718ZM52.5666 9.14389C50.6142 8.6994 48.8272 7.71236 47.4113 6.29649C45.9954 4.88062 45.0084 3.09353 44.5639 1.14114C44.5198 0.947826 44.4114 0.775204 44.2564 0.651557C44.1014 0.527911 43.909 0.460571 43.7108 0.460571C43.5125 0.460571 43.3201 0.527911 43.1651 0.651557C43.0101 0.775204 42.9017 0.947826 42.8576 1.14114C42.4135 3.09355 41.4267 4.88072 40.0109 6.29662C38.5952 7.71253 36.8081 8.69955 34.8558 9.14389C34.6624 9.18795 34.4898 9.29636 34.3662 9.45135C34.2425 9.60635 34.1752 9.79874 34.1752 9.99702C34.1752 10.1953 34.2425 10.3877 34.3662 10.5427C34.4898 10.6977 34.6624 10.8061 34.8558 10.8501C36.8079 11.2944 38.5948 12.2813 40.0104 13.697C41.426 15.1128 42.4127 16.8998 42.8568 18.852C42.9005 19.0458 43.0088 19.2189 43.1639 19.3429C43.319 19.4669 43.5117 19.5345 43.7103 19.5345C43.9089 19.5345 44.1016 19.4669 44.2568 19.3429C44.4119 19.2189 44.5202 19.0458 44.5639 18.852C45.0084 16.8998 45.9954 15.1129 47.4114 13.6974C48.8272 12.2818 50.6143 11.2951 52.5666 10.851C52.7604 10.8073 52.9335 10.699 53.0575 10.5439C53.1816 10.3888 53.2491 10.1961 53.2491 9.99745C53.2491 9.79884 53.1816 9.60614 53.0575 9.45102C52.9335 9.2959 52.7604 9.18759 52.5666 9.14389ZM43.7108 15.9715C42.4791 13.3427 40.365 11.2287 37.7363 9.99702C40.3647 8.76442 42.4785 6.65028 43.7108 4.02164C44.9436 6.65033 47.0576 8.76463 49.6861 9.99789C47.0573 11.2297 44.9437 13.3432 43.7108 15.9715Z" fill="white"/>
</svg>
