<svg width="48" height="56" viewBox="0 0 48 56" fill="none" xmlns="http://www.w3.org/2000/svg">
<path d="M45.7175 11.247L43.402 10.512C43.1472 7.67923 41.7537 5.04986 39.4536 3.07783C37.1786 1.12876 34.1992 0.0284517 31.2778 0.0634517C28.3575 0.0273579 25.3781 1.12876 23.102 3.07783C20.769 5.07611 19.3701 7.75033 19.1437 10.628L16.6762 11.4122C16.5756 11.4439 16.5067 11.4439 16.4061 11.4122L3.60701 7.34564C2.93326 7.13345 2.21904 7.25048 1.65248 7.6672C1.08044 8.08283 0.752319 8.72814 0.752319 9.43798V49.4233C0.752319 50.3825 1.3681 51.2225 2.28248 51.5124L15.8778 55.8316C16.102 55.9027 16.3219 55.9388 16.5428 55.9388C16.7637 55.9388 16.9836 55.9027 17.2078 55.8327L31.327 51.3483C31.4244 51.3166 31.4933 51.3177 31.5939 51.3494L44.3929 55.4149C45.0744 55.6292 45.7678 55.5155 46.3508 55.0933C46.9304 54.6678 47.2498 54.0378 47.2498 53.3225V13.335C47.2487 12.3758 46.6329 11.5369 45.7175 11.247ZM31.1444 1.81017C31.1859 1.81017 31.2264 1.81017 31.2679 1.81126H31.2898C36.6317 1.74783 41.3895 5.92704 41.6826 10.9397C41.6859 11.0053 41.6892 11.071 41.6914 11.1366C41.6903 11.1749 41.6914 11.212 41.6947 11.2503C41.8325 16.6469 37.429 22.4241 33.8776 27.0845C33.4445 27.6533 33.0344 28.1903 32.6417 28.7164C32.3387 29.1244 31.9253 29.3311 31.4145 29.3311C31.3894 29.3311 31.3642 29.3322 31.3401 29.33C31.3193 29.3289 31.2986 29.3278 31.2778 29.3278C31.2581 29.3278 31.2395 29.3289 31.2198 29.33C31.1925 29.3322 31.1651 29.3311 31.1389 29.3311C30.6281 29.3311 30.2158 29.1244 29.9106 28.7153C29.5169 28.187 29.1034 27.6456 28.667 27.0725C25.0522 22.3267 20.5525 16.4216 20.8751 10.9419C21.1661 5.96533 25.8539 1.81017 31.1444 1.81017ZM17.4167 13.0113L19.1492 12.4611C19.5954 18.048 23.8206 23.5955 27.2758 28.1313C27.71 28.7011 28.1201 29.2403 28.5084 29.7599C29.029 30.4599 29.752 30.8995 30.5833 31.0352V49.7492L17.4156 53.9306V13.0113H17.4167ZM2.50013 49.4244V9.43798C2.50013 9.28376 2.55701 9.17111 2.68279 9.07923C2.80748 8.98845 2.93326 8.96658 3.07873 9.01251L15.6678 13.0102V53.9295L2.81076 49.8466C2.61607 49.7842 2.50013 49.6267 2.50013 49.4244ZM45.4998 53.3214C45.4998 53.4756 45.4408 53.5905 45.3183 53.6802C45.1903 53.7731 45.0667 53.7928 44.9179 53.7469L32.3322 49.7492V30.9542C33.0103 30.7628 33.6009 30.356 34.0428 29.761C34.4289 29.2436 34.8368 28.7099 35.2678 28.1444C38.7503 23.5747 43.0137 17.9791 43.4151 12.3506L45.1892 12.9139C45.3839 12.9752 45.4998 13.1338 45.4998 13.3361V53.3214ZM31.4156 18.4144C33.2148 18.4144 35.0151 17.7297 36.3856 16.3592C37.7079 15.0369 38.4364 13.2705 38.4364 11.3881C38.4364 9.5058 37.7079 7.73939 36.3856 6.41705C35.0633 5.0947 33.2979 4.36626 31.4156 4.36626C29.5343 4.36626 27.769 5.0947 26.4467 6.41705C25.1222 7.73939 24.3926 9.5058 24.3926 11.3881C24.3926 13.2716 25.1222 15.0369 26.4467 16.3592C27.8172 17.7297 29.6164 18.4144 31.4156 18.4144ZM27.6826 7.65408C28.6758 6.66095 30.0014 6.11408 31.4167 6.11408C32.832 6.11408 34.1576 6.66095 35.1497 7.65298C36.1417 8.64501 36.6886 9.97173 36.6886 11.3881C36.6886 12.8045 36.1417 14.1302 35.1497 15.1233C33.0912 17.1817 29.7422 17.1817 27.6826 15.1233C26.6884 14.1313 26.1415 12.8045 26.1415 11.3892C26.1415 9.97392 26.6884 8.64611 27.6826 7.65408Z" fill="white"/>
</svg>
