<svg width="46" height="56" viewBox="0 0 46 56" fill="none" xmlns="http://www.w3.org/2000/svg">
<path d="M41.6666 56C42.6568 56 43.6064 55.6067 44.3065 54.9065C45.0066 54.2064 45.4 53.2568 45.4 52.2667V15.1592C45.3973 14.1696 45.0042 13.2211 44.3061 12.5197L32.8802 1.09387C32.1789 0.395755 31.2304 0.00265458 30.2408 0L4.33331 0C3.34317 0 2.39358 0.393332 1.69344 1.09347C0.993308 1.7936 0.599976 2.74319 0.599976 3.73333V52.2667C0.599976 53.2568 0.993308 54.2064 1.69344 54.9065C2.39358 55.6067 3.34317 56 4.33331 56H41.6666ZM42.2136 13.0667H34.2C33.7049 13.0667 33.2301 12.87 32.88 12.5199C32.53 12.1699 32.3333 11.6951 32.3333 11.2V3.1864L42.2136 13.0667ZM2.46664 52.2667V3.73333C2.46664 3.23826 2.66331 2.76347 3.01338 2.4134C3.36344 2.06333 3.83824 1.86667 4.33331 1.86667H30.2408C30.3165 1.86951 30.3919 1.87699 30.4666 1.88907V11.2C30.4666 12.1901 30.86 13.1397 31.5601 13.8399C32.2602 14.54 33.2098 14.9333 34.2 14.9333H43.5109C43.523 15.0081 43.5305 15.0835 43.5333 15.1592V52.2667C43.5333 52.7617 43.3366 53.2365 42.9866 53.5866C42.6365 53.9367 42.1617 54.1333 41.6666 54.1333H4.33331C3.83824 54.1333 3.36344 53.9367 3.01338 53.5866C2.66331 53.2365 2.46664 52.7617 2.46664 52.2667Z" fill="white"/>
<path d="M8.99998 24.2667H37C37.2475 24.2667 37.4849 24.1684 37.66 23.9933C37.835 23.8183 37.9333 23.5809 37.9333 23.3334C37.9333 23.0858 37.835 22.8484 37.66 22.6734C37.4849 22.4984 37.2475 22.4 37 22.4H8.99998C8.75245 22.4 8.51505 22.4984 8.34002 22.6734C8.16498 22.8484 8.06665 23.0858 8.06665 23.3334C8.06665 23.5809 8.16498 23.8183 8.34002 23.9933C8.51505 24.1684 8.75245 24.2667 8.99998 24.2667ZM8.99998 31.7334H37C37.2475 31.7334 37.4849 31.635 37.66 31.46C37.835 31.285 37.9333 31.0476 37.9333 30.8C37.9333 30.5525 37.835 30.3151 37.66 30.1401C37.4849 29.965 37.2475 29.8667 37 29.8667H8.99998C8.75245 29.8667 8.51505 29.965 8.34002 30.1401C8.16498 30.3151 8.06665 30.5525 8.06665 30.8C8.06665 31.0476 8.16498 31.285 8.34002 31.46C8.51505 31.635 8.75245 31.7334 8.99998 31.7334ZM8.99998 39.2H37C37.2475 39.2 37.4849 39.1017 37.66 38.9267C37.835 38.7516 37.9333 38.5142 37.9333 38.2667C37.9333 38.0192 37.835 37.7818 37.66 37.6067C37.4849 37.4317 37.2475 37.3334 37 37.3334H8.99998C8.75245 37.3334 8.51505 37.4317 8.34002 37.6067C8.16498 37.7818 8.06665 38.0192 8.06665 38.2667C8.06665 38.5142 8.16498 38.7516 8.34002 38.9267C8.51505 39.1017 8.75245 39.2 8.99998 39.2ZM8.99998 46.6667H27.6667C27.9142 46.6667 28.1516 46.5684 28.3266 46.3933C28.5017 46.2183 28.6 45.9809 28.6 45.7334C28.6 45.4858 28.5017 45.2484 28.3266 45.0734C28.1516 44.8984 27.9142 44.8 27.6667 44.8H8.99998C8.75245 44.8 8.51505 44.8984 8.34002 45.0734C8.16498 45.2484 8.06665 45.4858 8.06665 45.7334C8.06665 45.9809 8.16498 46.2183 8.34002 46.3933C8.51505 46.5684 8.75245 46.6667 8.99998 46.6667Z" fill="white"/>
</svg>
