<svg width="24" height="24" viewBox="0 0 24 24" fill="none" xmlns="http://www.w3.org/2000/svg">
<path d="M18.08 20.1601H5.92C5.02913 20.1592 4.17499 19.805 3.54505 19.175C2.91512 18.5451 2.56084 17.691 2.56 16.8001L2.56 7.20009C2.56084 6.30922 2.91512 5.45508 3.54505 4.82514C4.17499 4.19521 5.02913 3.84094 5.92 3.84009L18.08 3.84009C18.9709 3.84094 19.825 4.19521 20.4549 4.82514C21.0849 5.45508 21.4392 6.30922 21.44 7.20009V16.8001C21.4392 17.691 21.0849 18.5451 20.4549 19.175C19.825 19.805 18.9709 20.1592 18.08 20.1601ZM5.92 5.44009C5.45348 5.44093 5.0063 5.62663 4.67642 5.95651C4.34654 6.2864 4.16084 6.73357 4.16 7.20009V16.8001C4.16084 17.2666 4.34654 17.7138 4.67642 18.0437C5.0063 18.3735 5.45348 18.5592 5.92 18.5601H18.08C18.5465 18.5592 18.9937 18.3735 19.3236 18.0437C19.6535 17.7138 19.8392 17.2666 19.84 16.8001V7.20009C19.8392 6.73357 19.6535 6.2864 19.3236 5.95651C18.9937 5.62663 18.5465 5.44093 18.08 5.44009H5.92Z" fill="white"/>
<path d="M12 12.9633C11.4228 12.965 10.8551 12.8173 10.352 12.5345L3.01438 8.40971C2.82936 8.30532 2.69339 8.13171 2.63638 7.92707C2.57937 7.72243 2.60599 7.50353 2.71038 7.31851C2.81476 7.1335 2.98837 6.99753 3.19301 6.94052C3.39765 6.88351 3.61656 6.91012 3.80158 7.01451L11.136 11.1425C11.3999 11.2888 11.6967 11.3655 11.9984 11.3655C12.3001 11.3655 12.5969 11.2888 12.8608 11.1425L20.1984 7.01451C20.29 6.96283 20.3909 6.92969 20.4953 6.91699C20.5997 6.90429 20.7056 6.91229 20.8069 6.94052C20.9083 6.96875 21.003 7.01666 21.0858 7.08151C21.1687 7.14637 21.2379 7.2269 21.2896 7.31851C21.3413 7.41012 21.3744 7.51102 21.3871 7.61543C21.3998 7.71985 21.3918 7.82575 21.3636 7.92707C21.3353 8.0284 21.2874 8.12318 21.2226 8.20599C21.1577 8.2888 21.0772 8.35802 20.9856 8.40971L13.648 12.5345C13.1448 12.8173 12.5771 12.965 12 12.9633Z" fill="white"/>
</svg>
