<svg width="20" height="20" viewBox="0 0 20 20" fill="none" xmlns="http://www.w3.org/2000/svg">
<path d="M10 17.8666C9.85575 17.8666 9.7154 17.8198 9.6 17.7333C9.37067 17.56 4 13.4666 4 8.1333C4 6.542 4.63214 5.01588 5.75736 3.89066C6.88258 2.76544 8.4087 2.1333 10 2.1333C11.5913 2.1333 13.1174 2.76544 14.2426 3.89066C15.3679 5.01588 16 6.542 16 8.1333C16 13.4666 10.6293 17.56 10.4 17.7333C10.2846 17.8198 10.1442 17.8666 10 17.8666ZM10 3.46663C8.76276 3.46805 7.57659 3.96016 6.70173 4.83503C5.82686 5.70989 5.33474 6.89606 5.33333 8.1333C5.33333 12 8.8 15.312 10 16.3386C11.2 15.312 14.6667 12 14.6667 8.1333C14.6653 6.89606 14.1731 5.70989 13.2983 4.83503C12.4234 3.96016 11.2372 3.46805 10 3.46663Z" fill="#A9ADC6"/>
<path d="M10 10.6665C9.49896 10.6665 9.00917 10.5179 8.59256 10.2396C8.17596 9.96121 7.85126 9.56556 7.65951 9.10265C7.46777 8.63975 7.4176 8.13038 7.51535 7.63896C7.6131 7.14754 7.85438 6.69614 8.20867 6.34185C8.56297 5.98756 9.01436 5.74628 9.50578 5.64853C9.9972 5.55078 10.5066 5.60095 10.9695 5.79269C11.4324 5.98444 11.828 6.30914 12.1064 6.72574C12.3848 7.14235 12.5333 7.63214 12.5333 8.13319C12.5326 8.80485 12.2655 9.44881 11.7906 9.92375C11.3156 10.3987 10.6717 10.6658 10 10.6665ZM10 6.93319C9.76267 6.93319 9.53066 7.00357 9.33332 7.13542C9.13599 7.26728 8.98218 7.4547 8.89135 7.67397C8.80053 7.89324 8.77676 8.13452 8.82307 8.3673C8.86937 8.60007 8.98366 8.81389 9.15148 8.98172C9.3193 9.14954 9.53312 9.26383 9.7659 9.31013C9.99868 9.35643 10.24 9.33267 10.4592 9.24184C10.6785 9.15102 10.8659 8.99721 10.9978 8.79987C11.1296 8.60253 11.2 8.37053 11.2 8.13319C11.1993 7.81514 11.0726 7.51033 10.8478 7.28544C10.6229 7.06055 10.3181 6.93389 10 6.93319Z" fill="#A9ADC6"/>
</svg>
