<svg width="56" height="56" viewBox="0 0 56 56" fill="none" xmlns="http://www.w3.org/2000/svg">
<path d="M44.2704 20.3915C46.3543 23.9867 47.4558 28.0951 47.4558 32.2721C47.4558 38.6101 44.9877 44.5687 40.506 49.0502C36.0244 53.5318 30.0658 55.9999 23.7279 55.9999C17.39 55.9999 11.4313 53.5318 6.9498 49.0502C2.46816 44.5687 0 38.6101 0 32.2721C0 25.9342 2.46816 19.9755 6.9498 15.494C11.4314 11.0125 17.39 8.5442 23.7279 8.5442C27.9052 8.5442 32.0135 9.64571 35.6087 11.7296C35.8086 11.8464 35.9541 12.0377 36.0133 12.2616C36.0725 12.4854 36.0406 12.7236 35.9244 12.924C35.8083 13.1243 35.6175 13.2705 35.3939 13.3304C35.1702 13.3903 34.9319 13.3592 34.7312 13.2437C31.4023 11.3141 27.5975 10.2943 23.728 10.2943C11.6093 10.2942 1.75 20.1535 1.75 32.2721C1.75 44.3908 11.6093 54.25 23.7279 54.25C35.8466 54.25 45.7058 44.3908 45.7058 32.2722C45.7058 28.403 44.6859 24.5981 42.7563 21.2691C42.64 21.0683 42.6081 20.8295 42.6678 20.6053C42.7275 20.381 42.8738 20.1897 43.0746 20.0733C43.2754 19.9569 43.5141 19.9251 43.7384 19.9847C43.9627 20.0444 44.154 20.1907 44.2704 20.3915ZM55.7437 11.162L48.3187 18.587C48.2101 18.6956 48.0748 18.7737 47.9265 18.8135C47.7781 18.8533 47.6219 18.8533 47.4736 18.8135L40.3365 16.9011L24.3467 32.8909C24.1758 33.0617 23.9519 33.1471 23.7279 33.1471C23.5039 33.1471 23.28 33.0617 23.1092 32.8909C22.9451 32.7268 22.8529 32.5042 22.8529 32.2722C22.8529 32.0401 22.9451 31.8176 23.1092 31.6535L39.099 15.6636L37.1866 8.52659C37.1469 8.37821 37.1469 8.22199 37.1866 8.07361C37.2264 7.92524 37.3045 7.78995 37.4131 7.68134L44.8382 0.256306C44.9468 0.147771 45.0821 0.0697287 45.2304 0.0300165C45.3788 -0.00969569 45.5349 -0.0096797 45.6833 0.0300628C45.8316 0.0698054 45.9669 0.147875 46.0755 0.256433C46.1841 0.364991 46.2622 0.500215 46.302 0.648525L48.2144 7.78557L55.3515 9.69788C55.4999 9.73762 55.6352 9.81573 55.7439 9.92435C55.8525 10.033 55.9306 10.1683 55.9704 10.3167C56.0101 10.4651 56.0101 10.6213 55.9703 10.7697C55.9305 10.9181 55.8524 11.0534 55.7437 11.162ZM53.4346 10.9962L47.2734 9.34526C47.125 9.30551 46.9898 9.2274 46.8811 9.11879C46.7725 9.01018 46.6944 8.87489 46.6547 8.72652L45.0038 2.56543L39.0076 8.56159L40.7892 15.2107L47.4383 16.9923L53.4346 10.9962ZM23.7279 20.0157C25.5499 20.0157 27.3036 20.4064 28.9403 21.1768C29.1503 21.2756 29.3909 21.2869 29.6092 21.2083C29.8275 21.1297 30.0057 20.9677 30.1046 20.7578C30.1535 20.6538 30.1815 20.5412 30.187 20.4265C30.1924 20.3117 30.1752 20.1969 30.1363 20.0888C30.0973 19.9807 30.0375 19.8813 29.9602 19.7963C29.8829 19.7113 29.7895 19.6424 29.6856 19.5935C27.8141 18.7125 25.8095 18.2657 23.7279 18.2657C16.0047 18.2657 9.72147 24.5489 9.72147 32.2721C9.72147 39.9953 16.0047 46.2786 23.7279 46.2786C31.4511 46.2786 37.7344 39.9953 37.7344 32.2721C37.7344 30.1908 37.2877 28.1863 36.4066 26.3145C36.3077 26.1045 36.1296 25.9424 35.9112 25.8638C35.6929 25.7852 35.4522 25.7965 35.2423 25.8953C35.0323 25.9942 34.8702 26.1723 34.7916 26.3907C34.713 26.609 34.7243 26.8497 34.8231 27.0596C35.5936 28.6966 35.9843 30.4503 35.9843 32.272C35.9843 39.0303 30.4861 44.5285 23.7278 44.5285C16.9695 44.5285 11.4714 39.0303 11.4714 32.272C11.4714 25.5137 16.9696 20.0157 23.7279 20.0157Z" fill="white"/>
</svg>
