<svg style="width:0; height:0; visibility: hidden;" xmlns="http://www.w3.org/2000/svg">
	<!-- plus -->
	<symbol id="svg-plus" viewBox="0 0 24 24">
		<g>

			<path
				d="M12 23.0132C9.8218 23.0132 7.69249 22.3673 5.88135 21.1572C4.07022 19.947 2.65861 18.227 1.82504 16.2145C0.991466 14.2021 0.773366 11.9877 1.19832 9.85132C1.62327 7.71494 2.67219 5.75255 4.21243 4.21231C5.75267 2.67207 7.71506 1.62315 9.85144 1.1982C11.9878 0.773243 14.2022 0.991344 16.2147 1.82492C18.2271 2.65849 19.9471 4.0701 21.1573 5.88123C22.3674 7.69236 23.0134 9.82168 23.0134 11.9999C23.0104 14.9199 21.8491 17.7195 19.7844 19.7842C17.7196 21.849 14.92 23.0103 12 23.0132ZM12 2.85324C10.191 2.85324 8.42258 3.38969 6.91842 4.39474C5.41426 5.39978 4.2419 6.8283 3.54961 8.49963C2.85733 10.171 2.67619 12.0101 3.02912 13.7843C3.38204 15.5586 4.25318 17.1884 5.53236 18.4676C6.81155 19.7468 8.44133 20.6179 10.2156 20.9708C11.9899 21.3238 13.829 21.1426 15.5003 20.4503C17.1716 19.758 18.6002 18.5857 19.6052 17.0815C20.6103 15.5774 21.1467 13.809 21.1467 11.9999C21.1437 9.57497 20.1791 7.2502 18.4644 5.53551C16.7497 3.82082 14.425 2.85621 12 2.85324Z"
			/>
			<path
				d="M17.2268 12.9333H6.77342C6.52589 12.9333 6.28849 12.835 6.11345 12.66C5.93842 12.4849 5.84009 12.2475 5.84009 12C5.84009 11.7524 5.93842 11.5151 6.11345 11.34C6.28849 11.165 6.52589 11.0667 6.77342 11.0667H17.2268C17.4743 11.0667 17.7117 11.165 17.8867 11.34C18.0618 11.5151 18.1601 11.7524 18.1601 12C18.1601 12.2475 18.0618 12.4849 17.8867 12.66C17.7117 12.835 17.4743 12.9333 17.2268 12.9333Z"
			/>
			<path
				d="M12 18.1598C11.7524 18.1598 11.5151 18.0615 11.34 17.8865C11.165 17.7114 11.0667 17.474 11.0667 17.2265V6.77318C11.0667 6.52564 11.165 6.28824 11.34 6.11321C11.5151 5.93818 11.7524 5.83984 12 5.83984C12.2475 5.83984 12.4849 5.93818 12.66 6.11321C12.835 6.28824 12.9333 6.52564 12.9333 6.77318V17.2265C12.9333 17.474 12.835 17.7114 12.66 17.8865C12.4849 18.0615 12.2475 18.1598 12 18.1598Z"
			/>
			
		</g>
	</symbol>
	<!-- icon cross -->
	<symbol id="svg-cross" viewBox="0 0 14 13">
		<g>

			<path
				d="M7 12.7933C5.7553 12.7933 4.53855 12.4242 3.50361 11.7327C2.46868 11.0412 1.66205 10.0583 1.18572 8.90835C0.709392 7.7584 0.584763 6.49302 0.827593 5.27223C1.07042 4.05145 1.6698 2.93008 2.54994 2.04994C3.43008 1.1698 4.55145 0.570422 5.77223 0.327593C6.99302 0.0847629 8.2584 0.209392 9.40835 0.685719C10.5583 1.16205 11.5412 1.96868 12.2327 3.00361C12.9242 4.03855 13.2933 5.2553 13.2933 6.5C13.2916 8.16858 12.628 9.76833 11.4482 10.9482C10.2683 12.128 8.66858 12.7916 7 12.7933ZM7 1.27333C5.96626 1.27333 4.95574 1.57987 4.09622 2.15419C3.2367 2.7285 2.56678 3.54479 2.17119 4.49984C1.7756 5.45489 1.67209 6.5058 1.87376 7.51967C2.07544 8.53355 2.57323 9.46485 3.30419 10.1958C4.03515 10.9268 4.96645 11.4246 5.98033 11.6262C6.9942 11.8279 8.04511 11.7244 9.00016 11.3288C9.95521 10.9332 10.7715 10.2633 11.3458 9.40378C11.9201 8.54426 12.2267 7.53374 12.2267 6.5C12.225 5.11432 11.6738 3.78588 10.6939 2.80606C9.71412 1.82624 8.38568 1.27503 7 1.27333Z"
			/>
			<path
				d="M4.86664 9.16665C4.79654 9.16689 4.72708 9.15325 4.66228 9.12653C4.59747 9.0998 4.53859 9.06051 4.48904 9.01092C4.38977 8.91031 4.33411 8.77466 4.33411 8.63332C4.33411 8.49198 4.38977 8.35632 4.48904 8.25572L8.75571 3.98905C8.85585 3.8889 8.99168 3.83264 9.13331 3.83264C9.27494 3.83264 9.41076 3.8889 9.51091 3.98905C9.61105 4.08919 9.66732 4.22502 9.66732 4.36665C9.66732 4.50828 9.61105 4.6441 9.51091 4.74425L5.24424 9.01092C5.19469 9.06051 5.13582 9.0998 5.07101 9.12653C5.0062 9.15325 4.93674 9.16689 4.86664 9.16665Z"
			/>
			<path
				d="M9.13332 9.16665C9.06321 9.16689 8.99376 9.15325 8.92895 9.12653C8.86414 9.0998 8.80527 9.06051 8.75571 9.01092L4.48905 4.74425C4.3889 4.6441 4.33264 4.50828 4.33264 4.36665C4.33264 4.22502 4.3889 4.08919 4.48905 3.98905C4.58919 3.8889 4.72502 3.83264 4.86665 3.83264C5.00828 3.83264 5.1441 3.8889 5.24425 3.98905L9.51092 8.25572C9.61019 8.35632 9.66585 8.49198 9.66585 8.63332C9.66585 8.77466 9.61019 8.91031 9.51092 9.01092C9.46137 9.06051 9.40249 9.0998 9.33768 9.12653C9.27287 9.15325 9.20342 9.16689 9.13332 9.16665Z"
			/>
		</g>
	</symbol>

	<symbol id="svg-down" viewBox="0 0 14 8">
		<g>

			<path
				d="M13.6016 0.853002C13.6019 0.949393 13.5831 1.0449 13.5464 1.13401C13.5096 1.22312 13.4556 1.30407 13.3874 1.3722L7.52076 7.23887C7.38243 7.37537 7.1959 7.4519 7.00156 7.4519C6.80722 7.4519 6.62069 7.37537 6.48236 7.23887L0.615694 1.3722C0.477994 1.2345 0.400635 1.04774 0.400635 0.853002C0.400635 0.658264 0.477994 0.471502 0.615694 0.333802C0.753395 0.196101 0.940157 0.118742 1.13489 0.118742C1.32963 0.118742 1.51639 0.196101 1.65409 0.333802L7.00156 5.693L12.349 0.333802C12.4874 0.197299 12.6739 0.120765 12.8682 0.120765C13.0626 0.120765 13.2491 0.197299 13.3874 0.333802C13.4556 0.401933 13.5096 0.482887 13.5464 0.571997C13.5831 0.661108 13.6019 0.756611 13.6016 0.853002V0.853002Z" />
		
		</g>
  	 </symbol>
	<symbol id="svg-user" viewBox="0 0 18 18">
		<g>
			<path
				d="M9.00002 17.6533C7.28855 17.6533 5.61552 17.1458 4.19248 16.195C2.76945 15.2442 1.66033 13.8927 1.00538 12.3115C0.350429 10.7303 0.179064 8.99042 0.512955 7.31183C0.846846 5.63325 1.671 4.09138 2.88119 2.88119C4.09138 1.671 5.63325 0.846846 7.31183 0.512955C8.99042 0.179064 10.7303 0.350429 12.3115 1.00538C13.8927 1.66033 15.2442 2.76945 16.195 4.19248C17.1458 5.61552 17.6533 7.28855 17.6533 9.00002C17.651 11.2943 16.7386 13.494 15.1163 15.1163C13.494 16.7386 11.2943 17.651 9.00002 17.6533V17.6533ZM9.00002 1.81335C7.57863 1.81335 6.18916 2.23484 5.00732 3.02452C3.82548 3.8142 2.90434 4.93661 2.3604 6.2498C1.81646 7.56299 1.67414 9.00799 1.95144 10.4021C2.22874 11.7961 2.9132 13.0767 3.91828 14.0818C4.92335 15.0868 6.20389 15.7713 7.59797 16.0486C8.99204 16.3259 10.437 16.1836 11.7502 15.6396C13.0634 15.0957 14.1858 14.1746 14.9755 12.9927C15.7652 11.8109 16.1867 10.4214 16.1867 9.00002C16.1844 7.09471 15.4264 5.2681 14.0792 3.92085C12.7319 2.57359 10.9053 1.81568 9.00002 1.81335V1.81335Z" />
			<path
				d="M13.1331 15.5149C12.8399 14.6514 12.2836 13.9014 11.5423 13.3702C10.801 12.8391 9.91197 12.5534 9.00002 12.5534C8.08808 12.5534 7.19904 12.8391 6.45775 13.3702C5.71646 13.9014 5.16015 14.6514 4.86696 15.5149L3.47949 15.0427C3.8718 13.8899 4.61511 12.8889 5.60517 12.18C6.59522 11.4711 7.78235 11.09 9.00002 11.09C10.2177 11.09 11.4048 11.4711 12.3949 12.18C13.3849 12.8889 14.1283 13.8899 14.5206 15.0427L13.1331 15.5149Z"
			/>
			<path
				d="M9.00004 10.3405C8.37231 10.3405 7.75867 10.1544 7.23673 9.80564C6.71479 9.45689 6.30799 8.9612 6.06777 8.38125C5.82755 7.8013 5.76469 7.16315 5.88716 6.54748C6.00962 5.93181 6.3119 5.36628 6.75578 4.9224C7.19965 4.47853 7.76518 4.17625 8.38085 4.05378C8.99652 3.93132 9.63468 3.99417 10.2146 4.2344C10.7946 4.47462 11.2903 4.88142 11.639 5.40336C11.9878 5.9253 12.1739 6.53893 12.1739 7.16667C12.1731 8.00819 11.8385 8.81502 11.2434 9.41007C10.6484 10.0051 9.84156 10.3398 9.00004 10.3405V10.3405ZM9.00004 5.45947C8.66239 5.45947 8.33232 5.55959 8.05157 5.74718C7.77082 5.93477 7.55201 6.2014 7.42279 6.51335C7.29358 6.8253 7.25977 7.16856 7.32564 7.49972C7.39152 7.83089 7.55411 8.13508 7.79287 8.37384C8.03162 8.6126 8.33582 8.77519 8.66698 8.84106C8.99815 8.90694 9.34141 8.87313 9.65336 8.74391C9.96531 8.6147 10.2319 8.39588 10.4195 8.11514C10.6071 7.83439 10.7072 7.50432 10.7072 7.16667C10.7065 6.71413 10.5264 6.28034 10.2064 5.96035C9.88636 5.64036 9.45258 5.46024 9.00004 5.45947V5.45947Z" />

		</g>
	 </symbol>
	<symbol id="svg-search" viewBox="0 0 15 16">
		<g>
			<path
				d="M6.05993 12.2C4.94444 12.2 3.854 11.8692 2.92651 11.2495C1.99902 10.6297 1.27612 9.7489 0.849244 8.71832C0.422366 7.68775 0.310675 6.55373 0.528295 5.45968C0.745916 4.36562 1.28307 3.36067 2.07184 2.5719C2.86061 1.78314 3.86556 1.24598 4.95962 1.02836C6.05367 0.810736 7.18768 0.922427 8.21826 1.3493C9.24884 1.77618 10.1297 2.49908 10.7494 3.42657C11.3691 4.35406 11.6999 5.4445 11.6999 6.55999C11.6987 8.05542 11.104 9.48924 10.0466 10.5467C8.98917 11.6041 7.55536 12.1987 6.05993 12.2V12.2ZM6.05993 2.11999C5.18178 2.11999 4.32335 2.38039 3.59319 2.86826C2.86304 3.35613 2.29395 4.04957 1.9579 4.86087C1.62185 5.67218 1.53392 6.56491 1.70524 7.42619C1.87656 8.28746 2.29943 9.0786 2.92037 9.69954C3.54132 10.3205 4.33245 10.7434 5.19372 10.9147C6.055 11.086 6.94774 10.9981 7.75904 10.662C8.57034 10.326 9.26378 9.75687 9.75165 9.02672C10.2395 8.29656 10.4999 7.43814 10.4999 6.55999C10.4987 5.38281 10.0305 4.25422 9.19808 3.42183C8.36569 2.58945 7.2371 2.12126 6.05993 2.11999V2.11999Z"
			/>
			<path
				d="M13.98 15.08C13.9011 15.0803 13.8229 15.0649 13.75 15.0349C13.6771 15.0048 13.6109 14.9606 13.5552 14.9048L9.19915 10.5488C9.08649 10.4361 9.02319 10.2833 9.02319 10.124C9.02319 9.96468 9.08649 9.81188 9.19915 9.69921C9.31182 9.58655 9.46462 9.52325 9.62395 9.52325C9.78328 9.52325 9.93609 9.58655 10.0488 9.69921L14.4048 14.0552C14.5164 14.1684 14.5791 14.321 14.5791 14.48C14.5791 14.639 14.5164 14.7916 14.4048 14.9048C14.349 14.9606 14.2828 15.0048 14.2099 15.0349C14.137 15.0649 14.0588 15.0803 13.98 15.08V15.08Z"
			/>
			
		</g>
	 </symbol>
	<symbol id="svg-link" viewBox="0 0 24 24">
		<g>
			<path
				d="M22.08 14.7254C21.8325 14.7254 21.5951 14.627 21.42 14.452C21.245 14.277 21.1467 14.0396 21.1467 13.792V2.85336H10.208C9.96046 2.85336 9.72306 2.75503 9.54803 2.57999C9.37299 2.40496 9.27466 2.16756 9.27466 1.92003C9.27466 1.67249 9.37299 1.4351 9.54803 1.26006C9.72306 1.08503 9.96046 0.986694 10.208 0.986694L22.08 0.986694C22.3275 0.986694 22.5649 1.08503 22.74 1.26006C22.915 1.4351 23.0133 1.67249 23.0133 1.92003V13.792C23.0133 14.0396 22.915 14.277 22.74 14.452C22.5649 14.627 22.3275 14.7254 22.08 14.7254Z"
			/>
			<path
				d="M1.91997 23.0133C1.7973 23.0137 1.67575 22.9899 1.56233 22.9431C1.44892 22.8963 1.34589 22.8276 1.25917 22.7408C1.08544 22.5647 0.988037 22.3273 0.988037 22.08C0.988037 21.8326 1.08544 21.5952 1.25917 21.4192L21.4192 1.25919C21.5944 1.08393 21.8321 0.985474 22.08 0.985474C22.3278 0.985474 22.5655 1.08393 22.7408 1.25919C22.916 1.43444 23.0145 1.67214 23.0145 1.91999C23.0145 2.16783 22.916 2.40553 22.7408 2.58079L2.58077 22.7408C2.49406 22.8276 2.39103 22.8963 2.27762 22.9431C2.1642 22.9899 2.04265 23.0137 1.91997 23.0133Z"
			/>
		</g>
	 </symbol>
	<symbol id="svg-mail" viewBox="0 0 24 24">
		<g>
			<path
				d="M18.08 20.1601H5.92C5.02913 20.1592 4.17499 19.805 3.54505 19.175C2.91512 18.5451 2.56084 17.691 2.56 16.8001L2.56 7.20009C2.56084 6.30922 2.91512 5.45508 3.54505 4.82514C4.17499 4.19521 5.02913 3.84094 5.92 3.84009L18.08 3.84009C18.9709 3.84094 19.825 4.19521 20.4549 4.82514C21.0849 5.45508 21.4392 6.30922 21.44 7.20009V16.8001C21.4392 17.691 21.0849 18.5451 20.4549 19.175C19.825 19.805 18.9709 20.1592 18.08 20.1601ZM5.92 5.44009C5.45348 5.44093 5.0063 5.62663 4.67642 5.95651C4.34654 6.2864 4.16084 6.73357 4.16 7.20009V16.8001C4.16084 17.2666 4.34654 17.7138 4.67642 18.0437C5.0063 18.3735 5.45348 18.5592 5.92 18.5601H18.08C18.5465 18.5592 18.9937 18.3735 19.3236 18.0437C19.6535 17.7138 19.8392 17.2666 19.84 16.8001V7.20009C19.8392 6.73357 19.6535 6.2864 19.3236 5.95651C18.9937 5.62663 18.5465 5.44093 18.08 5.44009H5.92Z" />
			<path
				d="M12 12.9633C11.4228 12.965 10.8551 12.8173 10.352 12.5345L3.01438 8.40971C2.82936 8.30532 2.69339 8.13171 2.63638 7.92707C2.57937 7.72243 2.60599 7.50353 2.71038 7.31851C2.81476 7.1335 2.98837 6.99753 3.19301 6.94052C3.39765 6.88351 3.61656 6.91012 3.80158 7.01451L11.136 11.1425C11.3999 11.2888 11.6967 11.3655 11.9984 11.3655C12.3001 11.3655 12.5969 11.2888 12.8608 11.1425L20.1984 7.01451C20.29 6.96283 20.3909 6.92969 20.4953 6.91699C20.5997 6.90429 20.7056 6.91229 20.8069 6.94052C20.9083 6.96875 21.003 7.01666 21.0858 7.08151C21.1687 7.14637 21.2379 7.2269 21.2896 7.31851C21.3413 7.41012 21.3744 7.51102 21.3871 7.61543C21.3998 7.71985 21.3918 7.82575 21.3636 7.92707C21.3353 8.0284 21.2874 8.12318 21.2226 8.20599C21.1577 8.2888 21.0772 8.35802 20.9856 8.40971L13.648 12.5345C13.1448 12.8173 12.5771 12.965 12 12.9633Z" />
		</g>
	 </symbol>
	<symbol id="svg-call" viewBox="0 0 20 20">
		<g>
			<path
				d="M14.0907 17.8666C13.6439 17.8671 13.2027 17.7668 12.8 17.5733C10.5488 16.4911 8.49748 15.0349 6.73334 13.2666C4.96505 11.5025 3.50884 9.45118 2.42668 7.19997C2.15892 6.63705 2.07233 6.00495 2.17883 5.39076C2.28534 4.77658 2.57969 4.21053 3.02134 3.77063L4.46134 2.32797C4.58678 2.20326 4.75647 2.13328 4.93334 2.1333V2.1333C5.11022 2.13328 5.27991 2.20326 5.40534 2.32797L8.83468 5.75997C8.89668 5.82167 8.94588 5.89501 8.97945 5.97578C9.01303 6.05655 9.03031 6.14316 9.03031 6.23063C9.03031 6.31811 9.01303 6.40471 8.97945 6.48549C8.94588 6.56626 8.89668 6.6396 8.83468 6.7013L7.59734 7.93863C8.1388 8.85549 8.79374 9.70038 9.54668 10.4533C10.299 11.2069 11.144 11.8619 12.0613 12.4026L13.2987 11.1653C13.3604 11.1033 13.4337 11.0541 13.5145 11.0205C13.5953 10.987 13.6819 10.9697 13.7693 10.9697C13.8568 10.9697 13.9434 10.987 14.0242 11.0205C14.105 11.0541 14.1783 11.1033 14.24 11.1653L17.672 14.5946C17.7961 14.7204 17.8657 14.89 17.8657 15.0666C17.8657 15.2433 17.7961 15.4129 17.672 15.5386L16.2293 16.9786C15.9487 17.2599 15.6153 17.4831 15.2484 17.6355C14.8814 17.7878 14.488 17.8664 14.0907 17.8666ZM4.93334 3.7333L3.96268 4.71197C3.71648 4.95723 3.55225 5.27271 3.49257 5.61507C3.43288 5.95742 3.48066 6.30986 3.62934 6.62397C4.64616 8.73842 6.01398 10.6653 7.67468 12.3226C9.33272 13.9845 11.2605 15.3532 13.376 16.3706C13.6903 16.5194 14.043 16.5669 14.3855 16.5068C14.7279 16.4466 15.0433 16.2816 15.288 16.0346L16.2667 15.0666L13.7787 12.5786L12.656 13.7013C12.5539 13.8058 12.4204 13.8739 12.2758 13.8951C12.1313 13.9163 11.9838 13.8894 11.856 13.8186C10.659 13.1739 9.5629 12.3572 8.60268 11.3946C7.63931 10.4351 6.82255 9.33889 6.17868 8.1413C6.10788 8.01352 6.08102 7.86602 6.10222 7.72148C6.12342 7.57695 6.19151 7.44337 6.29601 7.3413L7.41868 6.21597L4.93334 3.7333Z" />
		</g>
	 </symbol>
	<symbol id="svg-pin" viewBox="0 0 20 20">
		<g>
			<path
				d="M10 17.8666C9.85575 17.8666 9.7154 17.8198 9.6 17.7333C9.37067 17.56 4 13.4666 4 8.1333C4 6.542 4.63214 5.01588 5.75736 3.89066C6.88258 2.76544 8.4087 2.1333 10 2.1333C11.5913 2.1333 13.1174 2.76544 14.2426 3.89066C15.3679 5.01588 16 6.542 16 8.1333C16 13.4666 10.6293 17.56 10.4 17.7333C10.2846 17.8198 10.1442 17.8666 10 17.8666ZM10 3.46663C8.76276 3.46805 7.57659 3.96016 6.70173 4.83503C5.82686 5.70989 5.33474 6.89606 5.33333 8.1333C5.33333 12 8.8 15.312 10 16.3386C11.2 15.312 14.6667 12 14.6667 8.1333C14.6653 6.89606 14.1731 5.70989 13.2983 4.83503C12.4234 3.96016 11.2372 3.46805 10 3.46663Z"
			/>
			<path
				d="M10 10.6665C9.49896 10.6665 9.00917 10.5179 8.59256 10.2396C8.17596 9.96121 7.85126 9.56556 7.65951 9.10265C7.46777 8.63975 7.4176 8.13038 7.51535 7.63896C7.6131 7.14754 7.85438 6.69614 8.20867 6.34185C8.56297 5.98756 9.01436 5.74628 9.50578 5.64853C9.9972 5.55078 10.5066 5.60095 10.9695 5.79269C11.4324 5.98444 11.828 6.30914 12.1064 6.72574C12.3848 7.14235 12.5333 7.63214 12.5333 8.13319C12.5326 8.80485 12.2655 9.44881 11.7906 9.92375C11.3156 10.3987 10.6717 10.6658 10 10.6665ZM10 6.93319C9.76267 6.93319 9.53066 7.00357 9.33332 7.13542C9.13599 7.26728 8.98218 7.4547 8.89135 7.67397C8.80053 7.89324 8.77676 8.13452 8.82307 8.3673C8.86937 8.60007 8.98366 8.81389 9.15148 8.98172C9.3193 9.14954 9.53312 9.26383 9.7659 9.31013C9.99868 9.35643 10.24 9.33267 10.4592 9.24184C10.6785 9.15102 10.8659 8.99721 10.9978 8.79987C11.1296 8.60253 11.2 8.37053 11.2 8.13319C11.1993 7.81514 11.0726 7.51033 10.8478 7.28544C10.6229 7.06055 10.3181 6.93389 10 6.93319Z"
			/>
		</g>
	 </symbol>
	<symbol id="svg-add" viewBox="0 0 20 20">
		<g>

			<path
				d="M18.6401 10.8H1.36006C1.14789 10.8 0.944402 10.7157 0.794373 10.5656C0.644344 10.4156 0.560059 10.2121 0.560059 9.99995C0.560059 9.78778 0.644344 9.58429 0.794373 9.43427C0.944402 9.28424 1.14789 9.19995 1.36006 9.19995H18.6401C18.8522 9.19995 19.0557 9.28424 19.2057 9.43427C19.3558 9.58429 19.4401 9.78778 19.4401 9.99995C19.4401 10.2121 19.3558 10.4156 19.2057 10.5656C19.0557 10.7157 18.8522 10.8 18.6401 10.8Z"
			/>
			<path
				d="M10.0002 19.4401C9.78802 19.4401 9.58454 19.3558 9.43451 19.2057C9.28448 19.0557 9.2002 18.8522 9.2002 18.6401V1.36006C9.2002 1.14789 9.28448 0.944402 9.43451 0.794373C9.58454 0.644344 9.78802 0.560059 10.0002 0.560059C10.2124 0.560059 10.4159 0.644344 10.5659 0.794373C10.7159 0.944402 10.8002 1.14789 10.8002 1.36006V18.6401C10.8002 18.8522 10.7159 19.0557 10.5659 19.2057C10.4159 19.3558 10.2124 19.4401 10.0002 19.4401Z"
			/>
			
		</g>
	 </symbol>
	<symbol id="svg-folder" viewBox="0 0 38 37">
		<g>

			<path
				d="M30.6534 36.5289H7.34674C5.63924 36.5272 4.00215 35.8482 2.79476 34.6408C1.58738 33.4335 0.908362 31.7964 0.906738 30.0889L0.906738 8.6222C0.906738 8.21554 1.06829 7.82553 1.35584 7.53797C1.6434 7.25041 2.03341 7.08887 2.44007 7.08887H30.6534C32.3609 7.09049 33.998 7.76951 35.2054 8.97689C36.4128 10.1843 37.0918 11.8214 37.0934 13.5289V30.0889C37.0918 31.7964 36.4128 33.4335 35.2054 34.6408C33.998 35.8482 32.3609 36.5272 30.6534 36.5289ZM3.9734 10.1555V30.0889C3.97503 30.983 4.33095 31.8401 4.96322 32.4724C5.59549 33.1047 6.45257 33.4606 7.34674 33.4622H30.6534C31.5476 33.4606 32.4046 33.1047 33.0369 32.4724C33.6692 31.8401 34.0251 30.983 34.0267 30.0889V13.5289C34.0251 12.6347 33.6692 11.7776 33.0369 11.1454C32.4046 10.5131 31.5476 10.1572 30.6534 10.1555H3.9734Z" />
			<path
				d="M20.3862 10.1555H2.44007C2.03341 10.1555 1.6434 9.99394 1.35584 9.70638C1.06829 9.41883 0.906738 9.02882 0.906738 8.62215L0.906738 2.05335C0.906738 1.64669 1.06829 1.25668 1.35584 0.969122C1.6434 0.681567 2.03341 0.52002 2.44007 0.52002L14.4369 0.52002C14.6505 0.520887 14.8616 0.566027 15.0569 0.65259C15.2522 0.739154 15.4274 0.865261 15.5715 1.02295L21.527 7.59175C21.7268 7.81198 21.8583 8.08557 21.9055 8.3792C21.9526 8.67283 21.9133 8.97383 21.7924 9.24553C21.6715 9.51723 21.4742 9.74791 21.2245 9.90948C20.9749 10.071 20.6836 10.1565 20.3862 10.1555ZM3.9734 7.08882H16.927L13.7867 3.58669H3.9734V7.08882Z" />
			<path
				d="M22.0669 19.7664H12.2535C11.8469 19.7664 11.4569 19.6048 11.1693 19.3173C10.8818 19.0297 10.7202 18.6397 10.7202 18.233C10.7202 17.8264 10.8818 17.4364 11.1693 17.1488C11.4569 16.8613 11.8469 16.6997 12.2535 16.6997H22.0669C22.4735 16.6997 22.8636 16.8613 23.1511 17.1488C23.4387 17.4364 23.6002 17.8264 23.6002 18.233C23.6002 18.6397 23.4387 19.0297 23.1511 19.3173C22.8636 19.6048 22.4735 19.7664 22.0669 19.7664Z" />
			<path
				d="M26.3603 27.5066H11.6403C11.2336 27.5066 10.8436 27.3451 10.556 27.0575C10.2685 26.77 10.1069 26.3799 10.1069 25.9733C10.1069 25.5666 10.2685 25.1766 10.556 24.889C10.8436 24.6015 11.2336 24.4399 11.6403 24.4399H26.3603C26.7669 24.4399 27.1569 24.6015 27.4445 24.889C27.7321 25.1766 27.8936 25.5666 27.8936 25.9733C27.8936 26.3799 27.7321 26.77 27.4445 27.0575C27.1569 27.3451 26.7669 27.5066 26.3603 27.5066Z" />
			
		</g>
	 </symbol>
	<symbol id="chevron-right" viewBox="0 0 6 12">
		<g>

			<path
				d="M0.599781 11.3999C0.520916 11.4002 0.442777 11.3848 0.369869 11.3547C0.296961 11.3247 0.230725 11.2805 0.174981 11.2247C0.0632976 11.1115 0.000678737 10.9589 0.000678737 10.7999C0.000678737 10.6409 0.0632976 10.4883 0.174981 10.3751L4.55978 5.99988L0.174981 1.62468C0.0623174 1.51202 -0.000976564 1.35921 -0.000976562 1.19988C-0.000976561 1.04055 0.0623174 0.887743 0.174981 0.775079C0.287645 0.662415 0.44045 0.599121 0.599781 0.599121C0.759112 0.599121 0.911917 0.662415 1.02458 0.775079L5.82458 5.57508C5.93627 5.68826 5.99888 5.84087 5.99888 5.99988C5.99888 6.15889 5.93627 6.3115 5.82458 6.42468L1.02458 11.2247C0.968837 11.2805 0.902602 11.3247 0.829694 11.3547C0.756786 11.3848 0.678646 11.4002 0.599781 11.3999V11.3999Z" />
		
		</g>
	 </symbol>
	 <symbol id="chevron-left" viewBox="0 0 6 12">
		<g>
			<path
				d="M5.40008 11.3999C5.32121 11.4002 5.24307 11.3848 5.17017 11.3547C5.09726 11.3247 5.03102 11.2805 4.97528 11.2247L0.175279 6.42468C0.0635954 6.3115 0.000976562 6.15889 0.000976562 5.99988C0.000976563 5.84087 0.0635954 5.68826 0.175279 5.57508L4.97528 0.775079C5.08794 0.662415 5.24075 0.599121 5.40008 0.599121C5.55941 0.599121 5.71222 0.662415 5.82488 0.775079C5.93754 0.887743 6.00084 1.04055 6.00084 1.19988C6.00084 1.35921 5.93754 1.51202 5.82488 1.62468L1.44008 5.99988L5.82488 10.3751C5.93656 10.4883 5.99918 10.6409 5.99918 10.7999C5.99918 10.9589 5.93656 11.1115 5.82488 11.2247C5.76914 11.2805 5.7029 11.3247 5.62999 11.3547C5.55708 11.3848 5.47894 11.4002 5.40008 11.3999Z" />
		</g>
	 </symbol>

	<symbol id="svg-downl" viewBox="0 0 24 23">
		<g>
			<path
				d="M17.9731 15.637H15.7331C15.4855 15.637 15.2481 15.5387 15.0731 15.3636C14.8981 15.1886 14.7997 14.9512 14.7997 14.7037C14.7997 14.4561 14.8981 14.2187 15.0731 14.0437C15.2481 13.8687 15.4855 13.7703 15.7331 13.7703H17.9731C18.8147 13.7703 19.6218 13.436 20.217 12.8409C20.8121 12.2458 21.1464 11.4386 21.1464 10.597C21.1464 9.75539 20.8121 8.94824 20.217 8.35312C19.6218 7.75801 18.8147 7.42368 17.9731 7.42368H17.3123C17.0763 7.42423 16.849 7.33505 16.6764 7.17421C16.5038 7.01338 16.3988 6.79293 16.3827 6.55754C16.3009 5.37864 15.7748 4.27468 14.9108 3.46851C14.0467 2.66234 12.909 2.214 11.7272 2.214C10.5455 2.214 9.40773 2.66234 8.54367 3.46851C7.67961 4.27468 7.15357 5.37864 7.07175 6.55754C7.05564 6.79293 6.95063 7.01338 6.77802 7.17421C6.6054 7.33505 6.37808 7.42423 6.14215 7.42368H6.02641C5.18479 7.42368 4.37764 7.75801 3.78253 8.35312C3.18741 8.94824 2.85308 9.75539 2.85308 10.597C2.85308 11.4386 3.18741 12.2458 3.78253 12.8409C4.37764 13.436 5.18479 13.7703 6.02641 13.7703H8.26641C8.51395 13.7703 8.75135 13.8687 8.92638 14.0437C9.10141 14.2187 9.19975 14.4561 9.19975 14.7037C9.19975 14.9512 9.10141 15.1886 8.92638 15.3636C8.75135 15.5387 8.51395 15.637 8.26641 15.637H6.02641C4.74958 15.639 3.51957 15.1563 2.58489 14.2864C1.65021 13.4166 1.08054 12.2243 0.990946 10.9507C0.901356 9.67696 1.29853 8.41674 2.10224 7.42458C2.90595 6.43243 4.05627 5.7823 5.32081 5.60554C5.6173 4.12955 6.41444 2.80123 7.57742 1.84523C8.7404 0.889225 10.1979 0.364195 11.7033 0.358927C13.2088 0.353658 14.6699 0.868474 15.8395 1.81632C17.0092 2.76416 17.8156 4.08686 18.1224 5.56074C19.4591 5.58055 20.7332 6.13054 21.6644 7.08972C22.5955 8.04891 23.1075 9.33872 23.0877 10.6754C23.0679 12.0121 22.518 13.2862 21.5588 14.2174C20.5996 15.1485 19.3098 15.6605 17.9731 15.6407V15.637Z" />
			<path
				d="M11.9997 22.1853C11.7548 22.1854 11.5196 22.0891 11.345 21.9173C11.1704 21.7454 11.0703 21.5119 11.0664 21.2669V9.69359C11.0664 9.44605 11.1647 9.20865 11.3398 9.03362C11.5148 8.85859 11.7522 8.76025 11.9997 8.76025C12.2473 8.76025 12.4847 8.85859 12.6597 9.03362C12.8347 9.20865 12.9331 9.44605 12.9331 9.69359V21.2669C12.9292 21.5119 12.8291 21.7454 12.6545 21.9173C12.4799 22.0891 12.2447 22.1854 11.9997 22.1853Z" />
			<path
				d="M11.9993 22.1851C11.8766 22.1855 11.7551 22.1616 11.6417 22.1149C11.5282 22.0681 11.4252 21.9993 11.3385 21.9125L8.35184 18.9259C8.26506 18.8391 8.19622 18.7361 8.14926 18.6227C8.1023 18.5093 8.07813 18.3878 8.07812 18.2651C8.07812 18.1424 8.1023 18.0208 8.14926 17.9075C8.19622 17.7941 8.26506 17.6911 8.35184 17.6043C8.43861 17.5175 8.54164 17.4487 8.65502 17.4017C8.7684 17.3547 8.88992 17.3306 9.01264 17.3306C9.13536 17.3306 9.25688 17.3547 9.37026 17.4017C9.48364 17.4487 9.58666 17.5175 9.67344 17.6043L11.9993 19.9339L14.3252 17.6043C14.4119 17.5175 14.515 17.4487 14.6283 17.4017C14.7417 17.3547 14.8632 17.3306 14.986 17.3306C15.1087 17.3306 15.2302 17.3547 15.3436 17.4017C15.457 17.4487 15.56 17.5175 15.6468 17.6043C15.7335 17.6911 15.8024 17.7941 15.8493 17.9075C15.8963 18.0208 15.9205 18.1424 15.9205 18.2651C15.9205 18.3878 15.8963 18.5093 15.8493 18.6227C15.8024 18.7361 15.7335 18.8391 15.6468 18.9259L12.6601 21.9125C12.5734 21.9993 12.4704 22.0681 12.3569 22.1149C12.2435 22.1616 12.122 22.1855 11.9993 22.1851Z" />
		</g>
	</symbol>
	<symbol id="svg-target" viewBox="0 0 28 28">
		<g>
			<path
				d="M13.9998 24.1998C11.9824 24.1998 10.0104 23.6016 8.33299 22.4808C6.65561 21.36 5.34825 19.767 4.57624 17.9032C3.80422 16.0394 3.60223 13.9885 3.9958 12.0099C4.38937 10.0313 5.36082 8.21382 6.78732 6.78732C8.21382 5.36082 10.0313 4.38937 12.0099 3.9958C13.9885 3.60223 16.0394 3.80422 17.9032 4.57624C19.767 5.34825 21.36 6.65561 22.4808 8.33299C23.6016 10.0104 24.1998 11.9824 24.1998 13.9998C24.1974 16.7043 23.122 19.2973 21.2096 21.2096C19.2973 23.122 16.7043 24.1974 13.9998 24.1998ZM13.9998 6.06648C12.4307 6.06648 10.8969 6.53176 9.59229 7.40348C8.28766 8.27521 7.27082 9.51423 6.67037 10.9639C6.06991 12.4135 5.9128 14.0086 6.21891 15.5475C6.52502 17.0864 7.2806 18.5 8.3901 19.6095C9.49959 20.719 10.9132 21.4746 12.4521 21.7807C13.991 22.0868 15.5861 21.9297 17.0358 21.3293C18.4854 20.7288 19.7244 19.712 20.5961 18.4073C21.4679 17.1027 21.9331 15.5689 21.9331 13.9998C21.9307 11.8965 21.0941 9.88001 19.6069 8.39275C18.1196 6.90548 16.1031 6.06888 13.9998 6.06648Z" />
			<path
				d="M14 6.06695C13.6995 6.06695 13.4112 5.94755 13.1986 5.73501C12.9861 5.52247 12.8667 5.2342 12.8667 4.93362V1.76029C12.8667 1.45971 12.9861 1.17144 13.1986 0.958899C13.4112 0.746358 13.6995 0.626953 14 0.626953C14.3006 0.626953 14.5889 0.746358 14.8014 0.958899C15.014 1.17144 15.1334 1.45971 15.1334 1.76029V4.93362C15.1334 5.08245 15.1041 5.22983 15.0471 5.36733C14.9901 5.50483 14.9067 5.62977 14.8014 5.73501C14.6962 5.84025 14.5712 5.92373 14.4337 5.98068C14.2962 6.03764 14.1489 6.06695 14 6.06695Z" />
			<path
				d="M14 27.3736C13.6995 27.3736 13.4112 27.2542 13.1986 27.0416C12.9861 26.8291 12.8667 26.5408 12.8667 26.2403V23.0669C12.8667 22.7663 12.9861 22.4781 13.1986 22.2655C13.4112 22.053 13.6995 21.9336 14 21.9336C14.3006 21.9336 14.5889 22.053 14.8014 22.2655C15.014 22.4781 15.1334 22.7663 15.1334 23.0669V26.2403C15.1334 26.5408 15.014 26.8291 14.8014 27.0416C14.5889 27.2542 14.3006 27.3736 14 27.3736Z" />
			<path
				d="M26.2398 15.1339H23.0664C22.7659 15.1339 22.4776 15.0144 22.2651 14.8019C22.0525 14.5894 21.9331 14.3011 21.9331 14.0005C21.9331 13.6999 22.0525 13.4117 22.2651 13.1991C22.4776 12.9866 22.7659 12.8672 23.0664 12.8672H26.2398C26.5403 12.8672 26.8286 12.9866 27.0412 13.1991C27.2537 13.4117 27.3731 13.6999 27.3731 14.0005C27.3731 14.3011 27.2537 14.5894 27.0412 14.8019C26.8286 15.0144 26.5403 15.1339 26.2398 15.1339Z" />
			<path
				d="M4.93313 15.1339H1.7598C1.45922 15.1339 1.17095 15.0144 0.95841 14.8019C0.745869 14.5894 0.626465 14.3011 0.626465 14.0005C0.626465 13.6999 0.745869 13.4117 0.95841 13.1991C1.17095 12.9866 1.45922 12.8672 1.7598 12.8672H4.93313C5.23371 12.8672 5.52198 12.9866 5.73452 13.1991C5.94706 13.4117 6.06646 13.6999 6.06646 14.0005C6.06646 14.3011 5.94706 14.5894 5.73452 14.8019C5.52198 15.0144 5.23371 15.1339 4.93313 15.1339Z" />
			<path
				d="M14 18.3067C13.1483 18.3067 12.3156 18.0541 11.6074 17.5809C10.8991 17.1077 10.3471 16.4351 10.0212 15.6481C9.69523 14.8612 9.60994 13.9953 9.77611 13.1598C9.94229 12.3244 10.3525 11.5571 10.9548 10.9548C11.5571 10.3525 12.3244 9.94229 13.1598 9.77611C13.9953 9.60994 14.8612 9.69523 15.6481 10.0212C16.4351 10.3471 17.1077 10.8991 17.5809 11.6074C18.0541 12.3156 18.3067 13.1483 18.3067 14C18.3055 15.1419 17.8514 16.2366 17.044 17.044C16.2366 17.8514 15.1419 18.3055 14 18.3067ZM14 11.96C13.5966 11.96 13.2021 12.0797 12.8667 12.3038C12.5312 12.528 12.2697 12.8466 12.1153 13.2194C11.9609 13.5921 11.9205 14.0023 11.9992 14.398C12.0779 14.7937 12.2722 15.1572 12.5575 15.4425C12.8428 15.7278 13.2063 15.9221 13.602 16.0008C13.9978 16.0795 14.4079 16.0391 14.7807 15.8847C15.1535 15.7303 15.4721 15.4689 15.6962 15.1334C15.9204 14.7979 16.04 14.4035 16.04 14C16.0388 13.4594 15.8235 12.9412 15.4412 12.5589C15.0589 12.1765 14.5407 11.9612 14 11.96Z" />
		</g>
	</symbol>


	<symbol id="svg-fullscreen" viewBox="0 0 28 28">
		<g>
			<path
				d="M26.2398 8.33362C25.9393 8.33362 25.651 8.21422 25.4384 8.00167C25.2259 7.78913 25.1065 7.50087 25.1065 7.20029V2.89362H20.7998C20.4993 2.89362 20.211 2.77422 19.9984 2.56167C19.7859 2.34913 19.6665 2.06087 19.6665 1.76029C19.6665 1.45971 19.7859 1.17144 19.9984 0.958899C20.211 0.746358 20.4993 0.626953 20.7998 0.626953L26.2398 0.626953C26.5404 0.626953 26.8287 0.746358 27.0412 0.958899C27.2538 1.17144 27.3732 1.45971 27.3732 1.76029V7.20029C27.3732 7.50087 27.2538 7.78913 27.0412 8.00167C26.8287 8.21422 26.5404 8.33362 26.2398 8.33362Z" />
			<path
				d="M1.7598 8.33362C1.45922 8.33362 1.17095 8.21422 0.958411 8.00167C0.745869 7.78913 0.626465 7.50087 0.626465 7.20029V1.76029C0.626465 1.45971 0.745869 1.17144 0.958411 0.958899C1.17095 0.746358 1.45922 0.626953 1.7598 0.626953L7.1998 0.626953C7.50038 0.626953 7.78864 0.746358 8.00119 0.958899C8.21373 1.17144 8.33313 1.45971 8.33313 1.76029C8.33313 2.06087 8.21373 2.34913 8.00119 2.56167C7.78864 2.77422 7.50038 2.89362 7.1998 2.89362H2.89313V7.20029C2.89313 7.50087 2.77373 7.78913 2.56119 8.00167C2.34864 8.21422 2.06038 8.33362 1.7598 8.33362Z" />
			<path
				d="M7.1998 27.3737H1.7598C1.45922 27.3737 1.17095 27.2543 0.958411 27.0417C0.745869 26.8292 0.626465 26.5409 0.626465 26.2403V20.8003C0.626465 20.4997 0.745869 20.2115 0.958411 19.9989C1.17095 19.7864 1.45922 19.667 1.7598 19.667C2.06038 19.667 2.34864 19.7864 2.56119 19.9989C2.77373 20.2115 2.89313 20.4997 2.89313 20.8003V25.107H7.1998C7.50038 25.107 7.78864 25.2264 8.00119 25.4389C8.21373 25.6515 8.33313 25.9397 8.33313 26.2403C8.33313 26.5409 8.21373 26.8292 8.00119 27.0417C7.78864 27.2543 7.50038 27.3737 7.1998 27.3737Z" />
			<path
				d="M26.2398 27.3737H20.7998C20.4993 27.3737 20.211 27.2543 19.9984 27.0417C19.7859 26.8292 19.6665 26.5409 19.6665 26.2403C19.6665 25.9397 19.7859 25.6515 19.9984 25.4389C20.211 25.2264 20.4993 25.107 20.7998 25.107H25.1065V20.8003C25.1065 20.4997 25.2259 20.2115 25.4384 19.9989C25.651 19.7864 25.9393 19.667 26.2398 19.667C26.5404 19.667 26.8287 19.7864 27.0412 19.9989C27.2538 20.2115 27.3732 20.4997 27.3732 20.8003V26.2403C27.3732 26.5409 27.2538 26.8292 27.0412 27.0417C26.8287 27.2543 26.5404 27.3737 26.2398 27.3737Z"
			/>
		</g>
	</symbol>

	<symbol id="svg-userId" viewBox="0 0 28 22">
		<g>

			<path
				d="M23.5198 21.1998H4.4798C3.4582 21.1986 2.47879 20.7922 1.75641 20.0699C1.03402 19.3475 0.627665 18.3681 0.626465 17.3465L0.626465 4.65314C0.627665 3.63154 1.03402 2.65213 1.75641 1.92974C2.47879 1.20736 3.4582 0.801004 4.4798 0.799805L23.5198 0.799805C24.5414 0.801004 25.5208 1.20736 26.2432 1.92974C26.9656 2.65213 27.3719 3.63154 27.3731 4.65314V17.3465C27.3719 18.3681 26.9656 19.3475 26.2432 20.0699C25.5208 20.7922 24.5414 21.1986 23.5198 21.1998ZM4.4798 3.06647C4.05899 3.06647 3.65541 3.23364 3.35786 3.5312C3.0603 3.82875 2.89313 4.23233 2.89313 4.65314V17.3465C2.89313 17.7673 3.0603 18.1709 3.35786 18.4684C3.65541 18.766 4.05899 18.9331 4.4798 18.9331H23.5198C23.9406 18.9331 24.3442 18.766 24.6417 18.4684C24.9393 18.1709 25.1065 17.7673 25.1065 17.3465V4.65314C25.1065 4.23233 24.9393 3.82875 24.6417 3.5312C24.3442 3.23364 23.9406 3.06647 23.5198 3.06647H4.4798Z"/>
			<path
				d="M12.8302 17.1515H7.00485C6.72553 17.1525 6.44967 17.0897 6.19828 16.9679C5.94689 16.8461 5.7266 16.6686 5.55418 16.4489C5.38423 16.2346 5.26496 15.9846 5.20529 15.7177C5.14563 15.4508 5.14712 15.1738 5.20965 14.9075C5.46175 13.8479 6.06379 12.9042 6.91848 12.229C7.77317 11.5538 8.83057 11.1865 9.91978 11.1865C11.009 11.1865 12.0664 11.5538 12.9211 12.229C13.7758 12.9042 14.3778 13.8479 14.6299 14.9075C14.6924 15.1738 14.6939 15.4508 14.6343 15.7177C14.5746 15.9846 14.4553 16.2346 14.2854 16.4489C14.1123 16.669 13.8912 16.8467 13.639 16.9684C13.3868 17.0902 13.1102 17.1528 12.8302 17.1515ZM7.60778 14.8849H12.2318C12.0185 14.4538 11.6891 14.091 11.2805 13.8373C10.872 13.5836 10.4007 13.4492 9.91978 13.4492C9.43889 13.4492 8.96758 13.5836 8.55904 13.8373C8.15051 14.091 7.82102 14.4538 7.60778 14.8849Z" />
			<path
				d="M9.91981 10.741C9.33702 10.741 8.76731 10.5682 8.28273 10.2444C7.79816 9.9206 7.42047 9.4604 7.19745 8.92197C6.97442 8.38353 6.91607 7.79106 7.02977 7.21946C7.14346 6.64786 7.42411 6.12282 7.8362 5.71072C8.2483 5.29862 8.77335 5.01797 9.34495 4.90428C9.91654 4.79058 10.509 4.84893 11.0475 5.07196C11.5859 5.29499 12.0461 5.67267 12.3699 6.15724C12.6937 6.64182 12.8665 7.21153 12.8665 7.79432C12.8653 8.57546 12.5544 9.32426 12.0021 9.87661C11.4497 10.429 10.7009 10.7398 9.91981 10.741ZM9.91981 7.11432C9.78532 7.11432 9.65385 7.15421 9.54202 7.22892C9.4302 7.30364 9.34304 7.40985 9.29157 7.5341C9.24011 7.65835 9.22664 7.79508 9.25288 7.92699C9.27912 8.05889 9.34388 8.18006 9.43898 8.27516C9.53408 8.37026 9.65524 8.43502 9.78715 8.46126C9.91906 8.4875 10.0558 8.47403 10.18 8.42256C10.3043 8.37109 10.4105 8.28394 10.4852 8.17211C10.5599 8.06029 10.5998 7.92882 10.5998 7.79432C10.5998 7.61398 10.5282 7.44102 10.4006 7.31349C10.2731 7.18597 10.1002 7.11432 9.91981 7.11432Z" />
			<path
				d="M21.7065 9.41315H17.6265C17.3259 9.41315 17.0377 9.29375 16.8251 9.08121C16.6126 8.86866 16.4932 8.5804 16.4932 8.27982C16.4932 7.97924 16.6126 7.69097 16.8251 7.47843C17.0377 7.26589 17.3259 7.14648 17.6265 7.14648H21.7065C22.0071 7.14648 22.2953 7.26589 22.5079 7.47843C22.7204 7.69097 22.8398 7.97924 22.8398 8.27982C22.8398 8.5804 22.7204 8.86866 22.5079 9.08121C22.2953 9.29375 22.0071 9.41315 21.7065 9.41315Z"/>
			<path
				d="M21.7065 14.8536H17.6265C17.3259 14.8536 17.0377 14.7342 16.8251 14.5216C16.6126 14.3091 16.4932 14.0208 16.4932 13.7202C16.4932 13.4197 16.6126 13.1314 16.8251 12.9189C17.0377 12.7063 17.3259 12.5869 17.6265 12.5869H21.7065C22.0071 12.5869 22.2953 12.7063 22.5079 12.9189C22.7204 13.1314 22.8398 13.4197 22.8398 13.7202C22.8398 14.0208 22.7204 14.3091 22.5079 14.5216C22.2953 14.7342 22.0071 14.8536 21.7065 14.8536Z" />
			
		</g>
	</symbol>

	<symbol id="svg-www" viewBox="0 0 28 26">
		<g>
			<path
				d="M20.5278 25.285H5.0238C3.85792 25.2838 2.74014 24.8201 1.91574 23.9957C1.09134 23.1713 0.627665 22.0535 0.626465 20.8877L0.626465 5.38366C0.627665 4.21778 1.09134 3.1 1.91574 2.2756C2.74014 1.4512 3.85792 0.987528 5.0238 0.986328L20.5278 0.986328C21.6937 0.987528 22.8115 1.4512 23.6359 2.2756C24.4603 3.1 24.9239 4.21778 24.9251 5.38366V8.64766C24.9251 8.94824 24.8057 9.23651 24.5932 9.44905C24.3806 9.66159 24.0924 9.78099 23.7918 9.78099H2.89313V20.8877C2.89433 21.4524 3.11919 21.9936 3.51851 22.3929C3.91783 22.7923 4.45908 23.0171 5.0238 23.0183H20.5278C20.8284 23.0183 21.1166 23.1377 21.3292 23.3503C21.5417 23.5628 21.6611 23.8511 21.6611 24.1517C21.6611 24.4522 21.5417 24.7405 21.3292 24.953C21.1166 25.1656 20.8284 25.285 20.5278 25.285ZM2.89313 7.51433H22.6585V5.38366C22.6573 4.81894 22.4324 4.27769 22.0331 3.87838C21.6338 3.47906 21.0925 3.25419 20.5278 3.25299H5.0238C4.45908 3.25419 3.91783 3.47906 3.51851 3.87838C3.11919 4.27769 2.89433 4.81894 2.89313 5.38366V7.51433Z" />
			<path
				d="M10.9444 6.51667H10.1465C9.84594 6.51667 9.55767 6.39726 9.34513 6.18472C9.13259 5.97218 9.01318 5.68391 9.01318 5.38333C9.01318 5.08275 9.13259 4.79449 9.34513 4.58195C9.55767 4.3694 9.84594 4.25 10.1465 4.25H10.9625C11.2631 4.25 11.5514 4.3694 11.7639 4.58195C11.9764 4.79449 12.0958 5.08275 12.0958 5.38333C12.0958 5.68391 11.9764 5.97218 11.7639 6.18472C11.5514 6.39726 11.2631 6.51667 10.9625 6.51667H10.9444Z"/>
			<path
				d="M6.45617 6.51667H5.64017C5.33959 6.51667 5.05132 6.39726 4.83878 6.18472C4.62624 5.97218 4.50684 5.68391 4.50684 5.38333C4.50684 5.08275 4.62624 4.79449 4.83878 4.58195C5.05132 4.3694 5.33959 4.25 5.64017 4.25H6.45617C6.75675 4.25 7.04502 4.3694 7.25756 4.58195C7.4701 4.79449 7.5895 5.08275 7.5895 5.38333C7.5895 5.68391 7.4701 5.97218 7.25756 6.18472C7.04502 6.39726 6.75675 6.51667 6.45617 6.51667Z" />
			<path
				d="M8.918 20.3892C8.61742 20.3892 8.32916 20.2698 8.11661 20.0573C7.90407 19.8447 7.78467 19.5565 7.78467 19.2559V14.2329C7.78467 13.9324 7.90407 13.6441 8.11661 13.4316C8.32916 13.219 8.61742 13.0996 8.918 13.0996C9.21858 13.0996 9.50685 13.219 9.71939 13.4316C9.93193 13.6441 10.0513 13.9324 10.0513 14.2329V19.2559C10.0513 19.4047 10.022 19.5521 9.96507 19.6896C9.90811 19.8271 9.82463 19.952 9.71939 20.0573C9.61415 20.1625 9.48921 20.246 9.35171 20.3029C9.21421 20.3599 9.06683 20.3892 8.918 20.3892Z" />
			<path
				d="M13.0069 20.3892C12.7063 20.3892 12.418 20.2698 12.2055 20.0573C11.9929 19.8447 11.8735 19.5565 11.8735 19.2559V14.2329C11.8735 13.9324 11.9929 13.6441 12.2055 13.4316C12.418 13.219 12.7063 13.0996 13.0069 13.0996C13.3074 13.0996 13.5957 13.219 13.8083 13.4316C14.0208 13.6441 14.1402 13.9324 14.1402 14.2329V19.2559C14.1402 19.5565 14.0208 19.8447 13.8083 20.0573C13.5957 20.2698 13.3074 20.3892 13.0069 20.3892Z" />
			<path
				d="M5.83988 20.3892C5.5393 20.3892 5.25103 20.2698 5.03849 20.0573C4.82595 19.8447 4.70654 19.5565 4.70654 19.2559V14.2329C4.70654 13.9324 4.82595 13.6441 5.03849 13.4316C5.25103 13.219 5.5393 13.0996 5.83988 13.0996C6.14046 13.0996 6.42872 13.219 6.64126 13.4316C6.85381 13.6441 6.97321 13.9324 6.97321 14.2329V19.2559C6.97321 19.5565 6.85381 19.8447 6.64126 20.0573C6.42872 20.2698 6.14046 20.3892 5.83988 20.3892Z"/>
			<path
				d="M8.91801 17.878H5.83988C5.5393 17.878 5.25103 17.7586 5.03849 17.546C4.82595 17.3335 4.70654 17.0452 4.70654 16.7447C4.70654 16.4441 4.82595 16.1558 5.03849 15.9433C5.25103 15.7307 5.5393 15.6113 5.83988 15.6113H8.91801C9.21859 15.6113 9.50686 15.7307 9.7194 15.9433C9.93194 16.1558 10.0513 16.4441 10.0513 16.7447C10.0513 17.0452 9.93194 17.3335 9.7194 17.546C9.50686 17.7586 9.21859 17.878 8.91801 17.878Z" />
			<path
				d="M14.5484 15.3663H11.4702C11.1697 15.3663 10.8814 15.2469 10.6689 15.0343C10.4563 14.8218 10.3369 14.5335 10.3369 14.2329C10.3369 13.9324 10.4563 13.6441 10.6689 13.4316C10.8814 13.219 11.1697 13.0996 11.4702 13.0996H14.5484C14.849 13.0996 15.1372 13.219 15.3498 13.4316C15.5623 13.6441 15.6817 13.9324 15.6817 14.2329C15.6817 14.5335 15.5623 14.8218 15.3498 15.0343C15.1372 15.2469 14.849 15.3663 14.5484 15.3663Z" />
			<path
				d="M18.7823 20.3892C18.4817 20.3892 18.1934 20.2698 17.9809 20.0573C17.7683 19.8447 17.6489 19.5565 17.6489 19.2559V14.2329C17.6489 13.9324 17.7683 13.6441 17.9809 13.4316C18.1934 13.219 18.4817 13.0996 18.7823 13.0996C19.0828 13.0996 19.3711 13.219 19.5836 13.4316C19.7962 13.6441 19.9156 13.9324 19.9156 14.2329V19.2559C19.9156 19.5565 19.7962 19.8447 19.5836 20.0573C19.3711 20.2698 19.0828 20.3892 18.7823 20.3892Z" />
			<path
				d="M23.0166 20.3892C22.8676 20.3898 22.72 20.3609 22.5822 20.3042C22.4445 20.2474 22.3193 20.164 22.2139 20.0586C22.1086 19.9533 22.0251 19.8281 21.9684 19.6903C21.9116 19.5525 21.8827 19.4049 21.8833 19.2559V14.233C21.8827 14.084 21.9116 13.9363 21.9684 13.7985C22.0251 13.6608 22.1086 13.5356 22.2139 13.4302C22.3193 13.3249 22.4445 13.2414 22.5822 13.1847C22.72 13.1279 22.8676 13.099 23.0166 13.0996H24.9841C25.6177 13.0996 26.2254 13.3513 26.6734 13.7994C27.1215 14.2474 27.3732 14.8551 27.3732 15.4887C27.3732 16.1223 27.1215 16.73 26.6734 17.178C26.2254 17.626 25.6177 17.8778 24.9841 17.8778H24.15V19.2378C24.1524 19.3881 24.1248 19.5374 24.069 19.677C24.0131 19.8166 23.93 19.9437 23.8245 20.0509C23.719 20.1581 23.5933 20.2432 23.4546 20.3012C23.3159 20.3593 23.167 20.3892 23.0166 20.3892ZM24.15 15.6111H24.9841C25.0166 15.6111 25.0477 15.5982 25.0707 15.5752C25.0936 15.5523 25.1065 15.5211 25.1065 15.4887C25.1065 15.4562 25.0936 15.4251 25.0707 15.4021C25.0477 15.3792 25.0166 15.3663 24.9841 15.3663H24.15V15.6111Z" />
			<path
				d="M20.3194 15.3663H17.2412C16.9407 15.3663 16.6524 15.2469 16.4399 15.0343C16.2273 14.8218 16.1079 14.5335 16.1079 14.2329C16.1079 13.9324 16.2273 13.6441 16.4399 13.4316C16.6524 13.219 16.9407 13.0996 17.2412 13.0996H20.3194C20.62 13.0996 20.9082 13.219 21.1208 13.4316C21.3333 13.6441 21.4527 13.9324 21.4527 14.2329C21.4527 14.5335 21.3333 14.8218 21.1208 15.0343C20.9082 15.2469 20.62 15.3663 20.3194 15.3663Z" />

		</g>
	</symbol>
	<symbol id="svg-up" viewBox="0 0 16 20">
		<g>
			
				<path
					d="M8.04121 19.44C7.82904 19.44 7.62555 19.3557 7.47553 19.2057C7.3255 19.0557 7.24121 18.8522 7.24121 18.64V1.36C7.24121 1.14782 7.3255 0.944341 7.47553 0.794312C7.62555 0.644283 7.82904 0.559998 8.04121 0.559998C8.25338 0.559998 8.45687 0.644283 8.6069 0.794312C8.75692 0.944341 8.84121 1.14782 8.84121 1.36V18.64C8.84121 18.8522 8.75692 19.0557 8.6069 19.2057C8.45687 19.3557 8.25338 19.44 8.04121 19.44Z" />
				<path
					d="M14.8027 8.92158C14.5914 8.92146 14.3889 8.83743 14.2395 8.68798L8.04113 2.47998L1.84593 8.68798C1.69571 8.8382 1.49197 8.92259 1.27953 8.92259C1.06708 8.92259 0.863345 8.8382 0.713126 8.68798C0.562908 8.53776 0.478516 8.33402 0.478516 8.12158C0.478516 7.90914 0.562908 7.7054 0.713126 7.55518L7.47473 0.793578C7.62757 0.648394 7.83032 0.567444 8.04113 0.567444C8.25193 0.567444 8.45469 0.648394 8.60753 0.793578L15.3691 7.55518C15.518 7.70609 15.6015 7.90957 15.6015 8.12158C15.6015 8.33359 15.518 8.53707 15.3691 8.68798C15.2948 8.76236 15.2065 8.8213 15.1093 8.86139C15.0121 8.90149 14.9079 8.92194 14.8027 8.92158Z" />
			
		</g>
	</symbol>
	<symbol id="svg-cam" viewBox="0 0 24 16">
		<g>

				<path
					d="M13.8663 15.28H4.90633C3.86698 15.279 2.87049 14.8657 2.13556 14.1307C1.40063 13.3958 0.987317 12.3993 0.986328 11.36L0.986328 4.63997C0.987317 3.60063 1.40063 2.60413 2.13556 1.8692C2.87049 1.13428 3.86698 0.720959 4.90633 0.719971L13.8663 0.719971C14.9057 0.720959 15.9022 1.13428 16.6371 1.8692C17.372 2.60413 17.7853 3.60063 17.7863 4.63997V11.36C17.7853 12.3993 17.372 13.3958 16.6371 14.1307C15.9022 14.8657 14.9057 15.279 13.8663 15.28ZM4.90633 2.58664C4.36205 2.58762 3.84035 2.80427 3.45549 3.18913C3.07063 3.574 2.85398 4.0957 2.85299 4.63997V11.36C2.85398 11.9042 3.07063 12.4259 3.45549 12.8108C3.84035 13.1957 4.36205 13.4123 4.90633 13.4133H13.8663C14.4106 13.4123 14.9323 13.1957 15.3172 12.8108C15.702 12.4259 15.9187 11.9042 15.9197 11.36V4.63997C15.9187 4.0957 15.702 3.574 15.3172 3.18913C14.9323 2.80427 14.4106 2.58762 13.8663 2.58664H4.90633Z" />
				<path
					d="M22.0799 12.8496C21.9508 12.8472 21.8237 12.818 21.7065 12.7637L16.4799 10.3968C16.3626 10.3501 16.256 10.2802 16.1666 10.1911C16.0771 10.1021 16.0066 9.99586 15.9594 9.87881C15.9122 9.76176 15.8892 9.63635 15.8918 9.51016C15.8944 9.38398 15.9226 9.25963 15.9747 9.14465C16.0267 9.02967 16.1016 8.92644 16.1947 8.84121C16.2878 8.75598 16.3972 8.69051 16.5163 8.64878C16.6354 8.60704 16.7617 8.58989 16.8877 8.59838C17.0136 8.60686 17.1365 8.6408 17.2489 8.69814L21.1465 10.4677V5.52854L17.2377 7.28694C17.0105 7.38892 16.7521 7.39646 16.5193 7.30789C16.2865 7.21933 16.0984 7.04191 15.9964 6.81467C15.8944 6.58744 15.8869 6.32899 15.9755 6.0962C16.064 5.8634 16.2414 5.67532 16.4687 5.57334L21.6953 3.22134C21.8381 3.15677 21.9949 3.12919 22.1511 3.14115C22.3074 3.15311 22.4581 3.20422 22.5894 3.28977C22.7207 3.37532 22.8284 3.49256 22.9024 3.63066C22.9765 3.76877 23.0146 3.9233 23.0132 4.08001V11.92C23.0133 12.0762 22.974 12.23 22.899 12.367C22.8239 12.504 22.7156 12.6199 22.5839 12.704C22.433 12.7992 22.2583 12.8496 22.0799 12.8496Z"/>
			
		</g>
	</symbol>
	<symbol id="svg-filter" viewBox="0 0 20 20">
		<g>

			<path
				d="M12.8791 6.95988C12.6669 6.95988 12.4634 6.8756 12.3134 6.72557C12.1634 6.57554 12.0791 6.37206 12.0791 6.15988V1.67988C12.0791 1.46771 12.1634 1.26423 12.3134 1.1142C12.4634 0.964168 12.6669 0.879883 12.8791 0.879883C13.0913 0.879883 13.2948 0.964168 13.4448 1.1142C13.5948 1.26423 13.6791 1.46771 13.6791 1.67988V6.15988C13.6791 6.26494 13.6584 6.36897 13.6182 6.46603C13.578 6.56309 13.5191 6.65128 13.4448 6.72557C13.3705 6.79985 13.2823 6.85878 13.1852 6.89899C13.0882 6.93919 12.9842 6.95988 12.8791 6.95988Z"/>
			<path
				d="M9.67957 4.71987H1.35957C1.1474 4.71987 0.943914 4.63559 0.793885 4.48556C0.643856 4.33553 0.55957 4.13205 0.55957 3.91987C0.55957 3.7077 0.643856 3.50422 0.793885 3.35419C0.943914 3.20416 1.1474 3.11987 1.35957 3.11987H9.67957C9.89174 3.11987 10.0952 3.20416 10.2453 3.35419C10.3953 3.50422 10.4796 3.7077 10.4796 3.91987C10.4796 4.13205 10.3953 4.33553 10.2453 4.48556C10.0952 4.63559 9.89174 4.71987 9.67957 4.71987V4.71987Z"
				 />
			<path
				d="M18.6394 4.71987H13.465C13.2529 4.71987 13.0494 4.63559 12.8994 4.48556C12.7493 4.33553 12.665 4.13205 12.665 3.91987C12.665 3.7077 12.7493 3.50422 12.8994 3.35419C13.0494 3.20416 13.2529 3.11987 13.465 3.11987H18.6394C18.8516 3.11987 19.0551 3.20416 19.2051 3.35419C19.3552 3.50422 19.4394 3.7077 19.4394 3.91987C19.4394 4.13205 19.3552 4.33553 19.2051 4.48556C19.0551 4.63559 18.8516 4.71987 18.6394 4.71987V4.71987Z"
				 />
			<path
				d="M12.8791 19.3918C12.7739 19.3922 12.6697 19.3718 12.5725 19.3317C12.4752 19.2917 12.3868 19.2328 12.3125 19.1584C12.2381 19.084 12.1792 18.9957 12.1391 18.8984C12.0991 18.8012 12.0787 18.6969 12.0791 18.5918V14.1118C12.0791 13.8996 12.1634 13.6961 12.3134 13.5461C12.4635 13.3961 12.6669 13.3118 12.8791 13.3118C13.0913 13.3118 13.2948 13.3961 13.4448 13.5461C13.5948 13.6961 13.6791 13.8996 13.6791 14.1118V18.5918C13.6795 18.6969 13.6591 18.8012 13.6191 18.8984C13.579 18.9957 13.5201 19.084 13.4457 19.1584C13.3714 19.2328 13.283 19.2917 13.1858 19.3317C13.0885 19.3718 12.9843 19.3922 12.8791 19.3918Z"
				/>
			<path
				d="M12.8791 19.3918C12.7739 19.3922 12.6697 19.3718 12.5725 19.3317C12.4752 19.2917 12.3868 19.2328 12.3125 19.1584C12.2381 19.084 12.1792 18.9957 12.1391 18.8984C12.0991 18.8012 12.0787 18.6969 12.0791 18.5918V14.1118C12.0791 13.8996 12.1634 13.6961 12.3134 13.5461C12.4635 13.3961 12.6669 13.3118 12.8791 13.3118C13.0913 13.3118 13.2948 13.3961 13.4448 13.5461C13.5948 13.6961 13.6791 13.8996 13.6791 14.1118V18.5918C13.6795 18.6969 13.6591 18.8012 13.6191 18.8984C13.579 18.9957 13.5201 19.084 13.4457 19.1584C13.3714 19.2328 13.283 19.2917 13.1858 19.3317C13.0885 19.3718 12.9843 19.3922 12.8791 19.3918Z"
				/>
			<path
				d="M9.99957 17.152H1.35957C1.1474 17.152 0.943914 17.0677 0.793885 16.9177C0.643856 16.7677 0.55957 16.5642 0.55957 16.352C0.55957 16.1398 0.643856 15.9363 0.793885 15.7863C0.943914 15.6363 1.1474 15.552 1.35957 15.552H9.99957C10.2117 15.552 10.4152 15.6363 10.5653 15.7863C10.7153 15.9363 10.7996 16.1398 10.7996 16.352C10.7996 16.5642 10.7153 16.7677 10.5653 16.9177C10.4152 17.0677 10.2117 17.152 9.99957 17.152V17.152Z"
				/>
			<path
				d="M9.99957 17.152H1.35957C1.1474 17.152 0.943914 17.0677 0.793885 16.9177C0.643856 16.7677 0.55957 16.5642 0.55957 16.352C0.55957 16.1398 0.643856 15.9363 0.793885 15.7863C0.943914 15.6363 1.1474 15.552 1.35957 15.552H9.99957C10.2117 15.552 10.4152 15.6363 10.5653 15.7863C10.7153 15.9363 10.7996 16.1398 10.7996 16.352C10.7996 16.5642 10.7153 16.7677 10.5653 16.9177C10.4152 17.0677 10.2117 17.152 9.99957 17.152V17.152Z"
				/>
			<path
				d="M18.6394 17.152H13.465C13.2529 17.152 13.0494 17.0677 12.8994 16.9177C12.7493 16.7677 12.665 16.5642 12.665 16.352C12.665 16.1398 12.7493 15.9363 12.8994 15.7863C13.0494 15.6363 13.2529 15.552 13.465 15.552H18.6394C18.8516 15.552 19.0551 15.6363 19.2051 15.7863C19.3552 15.9363 19.4394 16.1398 19.4394 16.352C19.4394 16.5642 19.3552 16.7677 19.2051 16.9177C19.0551 17.0677 18.8516 17.152 18.6394 17.152V17.152Z"
				 />
			<path
				d="M18.6394 17.152H13.465C13.2529 17.152 13.0494 17.0677 12.8994 16.9177C12.7493 16.7677 12.665 16.5642 12.665 16.352C12.665 16.1398 12.7493 15.9363 12.8994 15.7863C13.0494 15.6363 13.2529 15.552 13.465 15.552H18.6394C18.8516 15.552 19.0551 15.6363 19.2051 15.7863C19.3552 15.9363 19.4394 16.1398 19.4394 16.352C19.4394 16.5642 19.3552 16.7677 19.2051 16.9177C19.0551 17.0677 18.8516 17.152 18.6394 17.152V17.152Z"
				 />
			<path
				d="M7.11934 13.1774C6.90716 13.1774 6.70368 13.0931 6.55365 12.9431C6.40362 12.7931 6.31934 12.5896 6.31934 12.3774V7.89741C6.31934 7.68524 6.40362 7.48176 6.55365 7.33173C6.70368 7.1817 6.90716 7.09741 7.11934 7.09741C7.33151 7.09741 7.53499 7.1817 7.68502 7.33173C7.83505 7.48176 7.91934 7.68524 7.91934 7.89741V12.3774C7.91934 12.5896 7.83505 12.7931 7.68502 12.9431C7.53499 13.0931 7.33151 13.1774 7.11934 13.1774V13.1774Z"
				 />
			<path
				d="M7.11934 13.1774C6.90716 13.1774 6.70368 13.0931 6.55365 12.9431C6.40362 12.7931 6.31934 12.5896 6.31934 12.3774V7.89741C6.31934 7.68524 6.40362 7.48176 6.55365 7.33173C6.70368 7.1817 6.90716 7.09741 7.11934 7.09741C7.33151 7.09741 7.53499 7.1817 7.68502 7.33173C7.83505 7.48176 7.91934 7.68524 7.91934 7.89741V12.3774C7.91934 12.5896 7.83505 12.7931 7.68502 12.9431C7.53499 13.0931 7.33151 13.1774 7.11934 13.1774V13.1774Z"
				 />
			<path
				d="M18.6392 10.9374H9.99922C9.78705 10.9374 9.58356 10.8531 9.43353 10.7031C9.2835 10.5531 9.19922 10.3496 9.19922 10.1374C9.19922 9.92523 9.2835 9.72175 9.43353 9.57172C9.58356 9.42169 9.78705 9.3374 9.99922 9.3374H18.6392C18.8514 9.3374 19.0549 9.42169 19.2049 9.57172C19.3549 9.72175 19.4392 9.92523 19.4392 10.1374C19.4392 10.3496 19.3549 10.5531 19.2049 10.7031C19.0549 10.8531 18.8514 10.9374 18.6392 10.9374V10.9374Z"
				 />
			<path
				d="M18.6392 10.9374H9.99922C9.78705 10.9374 9.58356 10.8531 9.43353 10.7031C9.2835 10.5531 9.19922 10.3496 9.19922 10.1374C9.19922 9.92523 9.2835 9.72175 9.43353 9.57172C9.58356 9.42169 9.78705 9.3374 9.99922 9.3374H18.6392C18.8514 9.3374 19.0549 9.42169 19.2049 9.57172C19.3549 9.72175 19.4392 9.92523 19.4392 10.1374C19.4392 10.3496 19.3549 10.5531 19.2049 10.7031C19.0549 10.8531 18.8514 10.9374 18.6392 10.9374V10.9374Z"
				 />
			<path
				d="M6.53397 10.9374H1.35957C1.1474 10.9374 0.943914 10.8531 0.793885 10.7031C0.643856 10.5531 0.55957 10.3496 0.55957 10.1374C0.55957 9.92523 0.643856 9.72175 0.793885 9.57172C0.943914 9.42169 1.1474 9.3374 1.35957 9.3374H6.53397C6.74614 9.3374 6.94963 9.42169 7.09966 9.57172C7.24969 9.72175 7.33397 9.92523 7.33397 10.1374C7.33397 10.3496 7.24969 10.5531 7.09966 10.7031C6.94963 10.8531 6.74614 10.9374 6.53397 10.9374V10.9374Z" />

		</g>
	</symbol>
	<symbol id="svg-check" viewbox="0 0 20 14">
		<g>

				<path
					d="M7.5996 13.4C7.38794 13.3987 7.18542 13.3136 7.0364 13.1632L0.793204 6.92324C0.642986 6.77303 0.558594 6.56928 0.558594 6.35684C0.558594 6.1444 0.642986 5.94066 0.793204 5.79044C0.943423 5.64022 1.14716 5.55583 1.3596 5.55583C1.57205 5.55583 1.77579 5.64023 1.926 5.79044L7.5996 11.4672L18.0732 0.993644C18.2234 0.843425 18.4272 0.759033 18.6396 0.759033C18.852 0.759033 19.0558 0.843425 19.206 0.993644C19.3562 1.14386 19.4406 1.3476 19.4406 1.56004C19.4406 1.77248 19.3562 1.97623 19.206 2.12644L8.166 13.1632C8.09184 13.2381 8.00362 13.2975 7.90642 13.3381C7.80922 13.3788 7.70496 13.3998 7.5996 13.4Z" />
			
		</g>
	</symbol>
	<symbol id="svg-reload"  viewBox="0 0 19 20">
		<g>

				<path fill-rule="evenodd" clip-rule="evenodd"
					d="M2.7316 1.36006C2.7316 0.918231 2.37343 0.560059 1.9316 0.560059C1.48977 0.560059 1.1316 0.918231 1.1316 1.36006V6.16896C1.13087 6.20552 1.13266 6.24199 1.13689 6.27811C1.14897 6.38314 1.1814 6.48198 1.23013 6.57059C1.28692 6.67432 1.36735 6.76658 1.46909 6.83849C1.54267 6.89071 1.62546 6.93081 1.71456 6.95587C1.79051 6.97732 1.8682 6.98704 1.94516 6.98566H6.754C7.19583 6.98566 7.554 6.62749 7.554 6.18566C7.554 5.74383 7.19583 5.38566 6.754 5.38566H3.50162C4.31661 4.47668 5.34745 3.77541 6.50896 3.35281C8.14199 2.75864 9.9311 2.75251 11.5682 3.33548C13.2052 3.91844 14.5878 5.054 15.4777 6.5466C16.3676 8.0392 16.7093 9.7954 16.4437 11.5128C16.1782 13.2301 15.3221 14.8011 14.0229 15.9552C12.7237 17.1094 11.0628 17.7743 9.32611 17.8356C7.58943 17.8969 5.88572 17.3507 4.5084 16.2911C3.13108 15.2315 2.16636 13.7247 1.78039 12.0304C1.68225 11.5996 1.25347 11.3299 0.822682 11.428C0.391891 11.5262 0.122219 11.955 0.220353 12.3857C0.689014 14.4431 1.8604 16.2726 3.53277 17.5592C5.20515 18.8459 7.27383 19.5091 9.38256 19.4346C11.4913 19.3602 13.508 18.5528 15.0855 17.1514C16.663 15.7501 17.7025 13.8425 18.0249 11.7572C18.3474 9.67199 17.9326 7.53957 16.852 5.72722C15.7714 3.91487 14.0927 2.53604 12.1049 1.82819C10.1171 1.12035 7.94477 1.12779 5.9619 1.84923C4.74481 2.29206 3.64589 2.98687 2.7316 3.8783V1.36006Z" />
			
		</g>
	</symbol>
</svg>