<svg style="width:0; height:0; visibility: hidden;" xmlns="http://www.w3.org/2000/svg">
	<!-- plus -->
	<symbol id="svg-plus" viewBox="0 0 24 24">
		<g>

			<path
				d="M12 23.0132C9.8218 23.0132 7.69249 22.3673 5.88135 21.1572C4.07022 19.947 2.65861 18.227 1.82504 16.2145C0.991466 14.2021 0.773366 11.9877 1.19832 9.85132C1.62327 7.71494 2.67219 5.75255 4.21243 4.21231C5.75267 2.67207 7.71506 1.62315 9.85144 1.1982C11.9878 0.773243 14.2022 0.991344 16.2147 1.82492C18.2271 2.65849 19.9471 4.0701 21.1573 5.88123C22.3674 7.69236 23.0134 9.82168 23.0134 11.9999C23.0104 14.9199 21.8491 17.7195 19.7844 19.7842C17.7196 21.849 14.92 23.0103 12 23.0132ZM12 2.85324C10.191 2.85324 8.42258 3.38969 6.91842 4.39474C5.41426 5.39978 4.2419 6.8283 3.54961 8.49963C2.85733 10.171 2.67619 12.0101 3.02912 13.7843C3.38204 15.5586 4.25318 17.1884 5.53236 18.4676C6.81155 19.7468 8.44133 20.6179 10.2156 20.9708C11.9899 21.3238 13.829 21.1426 15.5003 20.4503C17.1716 19.758 18.6002 18.5857 19.6052 17.0815C20.6103 15.5774 21.1467 13.809 21.1467 11.9999C21.1437 9.57497 20.1791 7.2502 18.4644 5.53551C16.7497 3.82082 14.425 2.85621 12 2.85324Z"
				 />
			<path
				d="M17.2268 12.9333H6.77342C6.52589 12.9333 6.28849 12.835 6.11345 12.66C5.93842 12.4849 5.84009 12.2475 5.84009 12C5.84009 11.7524 5.93842 11.5151 6.11345 11.34C6.28849 11.165 6.52589 11.0667 6.77342 11.0667H17.2268C17.4743 11.0667 17.7117 11.165 17.8867 11.34C18.0618 11.5151 18.1601 11.7524 18.1601 12C18.1601 12.2475 18.0618 12.4849 17.8867 12.66C17.7117 12.835 17.4743 12.9333 17.2268 12.9333Z"
				 />
			<path
				d="M12 18.1598C11.7524 18.1598 11.5151 18.0615 11.34 17.8865C11.165 17.7114 11.0667 17.474 11.0667 17.2265V6.77318C11.0667 6.52564 11.165 6.28824 11.34 6.11321C11.5151 5.93818 11.7524 5.83984 12 5.83984C12.2475 5.83984 12.4849 5.93818 12.66 6.11321C12.835 6.28824 12.9333 6.52564 12.9333 6.77318V17.2265C12.9333 17.474 12.835 17.7114 12.66 17.8865C12.4849 18.0615 12.2475 18.1598 12 18.1598Z"
				 />
			
		</g>
	</symbol>
	<!-- icon cross -->
	<symbol id="svg-cross" viewBox="0 0 14 13">
		<g>
			
				<path
					d="M7 12.7933C5.7553 12.7933 4.53855 12.4242 3.50361 11.7327C2.46868 11.0412 1.66205 10.0583 1.18572 8.90835C0.709392 7.7584 0.584763 6.49302 0.827593 5.27223C1.07042 4.05145 1.6698 2.93008 2.54994 2.04994C3.43008 1.1698 4.55145 0.570422 5.77223 0.327593C6.99302 0.0847629 8.2584 0.209392 9.40835 0.685719C10.5583 1.16205 11.5412 1.96868 12.2327 3.00361C12.9242 4.03855 13.2933 5.2553 13.2933 6.5C13.2916 8.16858 12.628 9.76833 11.4482 10.9482C10.2683 12.128 8.66858 12.7916 7 12.7933ZM7 1.27333C5.96626 1.27333 4.95574 1.57987 4.09622 2.15419C3.2367 2.7285 2.56678 3.54479 2.17119 4.49984C1.7756 5.45489 1.67209 6.5058 1.87376 7.51967C2.07544 8.53355 2.57323 9.46485 3.30419 10.1958C4.03515 10.9268 4.96645 11.4246 5.98033 11.6262C6.9942 11.8279 8.04511 11.7244 9.00016 11.3288C9.95521 10.9332 10.7715 10.2633 11.3458 9.40378C11.9201 8.54426 12.2267 7.53374 12.2267 6.5C12.225 5.11432 11.6738 3.78588 10.6939 2.80606C9.71412 1.82624 8.38568 1.27503 7 1.27333Z"
					 />
				<path
					d="M4.86664 9.16665C4.79654 9.16689 4.72708 9.15325 4.66228 9.12653C4.59747 9.0998 4.53859 9.06051 4.48904 9.01092C4.38977 8.91031 4.33411 8.77466 4.33411 8.63332C4.33411 8.49198 4.38977 8.35632 4.48904 8.25572L8.75571 3.98905C8.85585 3.8889 8.99168 3.83264 9.13331 3.83264C9.27494 3.83264 9.41076 3.8889 9.51091 3.98905C9.61105 4.08919 9.66732 4.22502 9.66732 4.36665C9.66732 4.50828 9.61105 4.6441 9.51091 4.74425L5.24424 9.01092C5.19469 9.06051 5.13582 9.0998 5.07101 9.12653C5.0062 9.15325 4.93674 9.16689 4.86664 9.16665Z"
					/>
				<path
					d="M9.13332 9.16665C9.06321 9.16689 8.99376 9.15325 8.92895 9.12653C8.86414 9.0998 8.80527 9.06051 8.75571 9.01092L4.48905 4.74425C4.3889 4.6441 4.33264 4.50828 4.33264 4.36665C4.33264 4.22502 4.3889 4.08919 4.48905 3.98905C4.58919 3.8889 4.72502 3.83264 4.86665 3.83264C5.00828 3.83264 5.1441 3.8889 5.24425 3.98905L9.51092 8.25572C9.61019 8.35632 9.66585 8.49198 9.66585 8.63332C9.66585 8.77466 9.61019 8.91031 9.51092 9.01092C9.46137 9.06051 9.40249 9.0998 9.33768 9.12653C9.27287 9.15325 9.20342 9.16689 9.13332 9.16665Z"
					/>
			</svg>
		</g>
	</symbol>





</svg>