<svg style="width:0; height:0; visibility: hidden;" xmlns="http://www.w3.org/2000/svg">
	<!-- plus -->
	<symbol id="svg-plus" viewBox="0 0 24 24">
		<g>

			<path
				d="M12 23.0132C9.8218 23.0132 7.69249 22.3673 5.88135 21.1572C4.07022 19.947 2.65861 18.227 1.82504 16.2145C0.991466 14.2021 0.773366 11.9877 1.19832 9.85132C1.62327 7.71494 2.67219 5.75255 4.21243 4.21231C5.75267 2.67207 7.71506 1.62315 9.85144 1.1982C11.9878 0.773243 14.2022 0.991344 16.2147 1.82492C18.2271 2.65849 19.9471 4.0701 21.1573 5.88123C22.3674 7.69236 23.0134 9.82168 23.0134 11.9999C23.0104 14.9199 21.8491 17.7195 19.7844 19.7842C17.7196 21.849 14.92 23.0103 12 23.0132ZM12 2.85324C10.191 2.85324 8.42258 3.38969 6.91842 4.39474C5.41426 5.39978 4.2419 6.8283 3.54961 8.49963C2.85733 10.171 2.67619 12.0101 3.02912 13.7843C3.38204 15.5586 4.25318 17.1884 5.53236 18.4676C6.81155 19.7468 8.44133 20.6179 10.2156 20.9708C11.9899 21.3238 13.829 21.1426 15.5003 20.4503C17.1716 19.758 18.6002 18.5857 19.6052 17.0815C20.6103 15.5774 21.1467 13.809 21.1467 11.9999C21.1437 9.57497 20.1791 7.2502 18.4644 5.53551C16.7497 3.82082 14.425 2.85621 12 2.85324Z"
			/>
			<path
				d="M17.2268 12.9333H6.77342C6.52589 12.9333 6.28849 12.835 6.11345 12.66C5.93842 12.4849 5.84009 12.2475 5.84009 12C5.84009 11.7524 5.93842 11.5151 6.11345 11.34C6.28849 11.165 6.52589 11.0667 6.77342 11.0667H17.2268C17.4743 11.0667 17.7117 11.165 17.8867 11.34C18.0618 11.5151 18.1601 11.7524 18.1601 12C18.1601 12.2475 18.0618 12.4849 17.8867 12.66C17.7117 12.835 17.4743 12.9333 17.2268 12.9333Z"
			/>
			<path
				d="M12 18.1598C11.7524 18.1598 11.5151 18.0615 11.34 17.8865C11.165 17.7114 11.0667 17.474 11.0667 17.2265V6.77318C11.0667 6.52564 11.165 6.28824 11.34 6.11321C11.5151 5.93818 11.7524 5.83984 12 5.83984C12.2475 5.83984 12.4849 5.93818 12.66 6.11321C12.835 6.28824 12.9333 6.52564 12.9333 6.77318V17.2265C12.9333 17.474 12.835 17.7114 12.66 17.8865C12.4849 18.0615 12.2475 18.1598 12 18.1598Z"
			/>
			
		</g>
	</symbol>
	<!-- icon cross -->
	<symbol id="svg-cross" viewBox="0 0 14 13">
		<g>

			<path
				d="M7 12.7933C5.7553 12.7933 4.53855 12.4242 3.50361 11.7327C2.46868 11.0412 1.66205 10.0583 1.18572 8.90835C0.709392 7.7584 0.584763 6.49302 0.827593 5.27223C1.07042 4.05145 1.6698 2.93008 2.54994 2.04994C3.43008 1.1698 4.55145 0.570422 5.77223 0.327593C6.99302 0.0847629 8.2584 0.209392 9.40835 0.685719C10.5583 1.16205 11.5412 1.96868 12.2327 3.00361C12.9242 4.03855 13.2933 5.2553 13.2933 6.5C13.2916 8.16858 12.628 9.76833 11.4482 10.9482C10.2683 12.128 8.66858 12.7916 7 12.7933ZM7 1.27333C5.96626 1.27333 4.95574 1.57987 4.09622 2.15419C3.2367 2.7285 2.56678 3.54479 2.17119 4.49984C1.7756 5.45489 1.67209 6.5058 1.87376 7.51967C2.07544 8.53355 2.57323 9.46485 3.30419 10.1958C4.03515 10.9268 4.96645 11.4246 5.98033 11.6262C6.9942 11.8279 8.04511 11.7244 9.00016 11.3288C9.95521 10.9332 10.7715 10.2633 11.3458 9.40378C11.9201 8.54426 12.2267 7.53374 12.2267 6.5C12.225 5.11432 11.6738 3.78588 10.6939 2.80606C9.71412 1.82624 8.38568 1.27503 7 1.27333Z"
			/>
			<path
				d="M4.86664 9.16665C4.79654 9.16689 4.72708 9.15325 4.66228 9.12653C4.59747 9.0998 4.53859 9.06051 4.48904 9.01092C4.38977 8.91031 4.33411 8.77466 4.33411 8.63332C4.33411 8.49198 4.38977 8.35632 4.48904 8.25572L8.75571 3.98905C8.85585 3.8889 8.99168 3.83264 9.13331 3.83264C9.27494 3.83264 9.41076 3.8889 9.51091 3.98905C9.61105 4.08919 9.66732 4.22502 9.66732 4.36665C9.66732 4.50828 9.61105 4.6441 9.51091 4.74425L5.24424 9.01092C5.19469 9.06051 5.13582 9.0998 5.07101 9.12653C5.0062 9.15325 4.93674 9.16689 4.86664 9.16665Z"
			/>
			<path
				d="M9.13332 9.16665C9.06321 9.16689 8.99376 9.15325 8.92895 9.12653C8.86414 9.0998 8.80527 9.06051 8.75571 9.01092L4.48905 4.74425C4.3889 4.6441 4.33264 4.50828 4.33264 4.36665C4.33264 4.22502 4.3889 4.08919 4.48905 3.98905C4.58919 3.8889 4.72502 3.83264 4.86665 3.83264C5.00828 3.83264 5.1441 3.8889 5.24425 3.98905L9.51092 8.25572C9.61019 8.35632 9.66585 8.49198 9.66585 8.63332C9.66585 8.77466 9.61019 8.91031 9.51092 9.01092C9.46137 9.06051 9.40249 9.0998 9.33768 9.12653C9.27287 9.15325 9.20342 9.16689 9.13332 9.16665Z"
			/>
		</g>
	</symbol>

	<symbol id="svg-down" viewBox="0 0 14 8">
		<g>

			<path
				d="M13.6016 0.853002C13.6019 0.949393 13.5831 1.0449 13.5464 1.13401C13.5096 1.22312 13.4556 1.30407 13.3874 1.3722L7.52076 7.23887C7.38243 7.37537 7.1959 7.4519 7.00156 7.4519C6.80722 7.4519 6.62069 7.37537 6.48236 7.23887L0.615694 1.3722C0.477994 1.2345 0.400635 1.04774 0.400635 0.853002C0.400635 0.658264 0.477994 0.471502 0.615694 0.333802C0.753395 0.196101 0.940157 0.118742 1.13489 0.118742C1.32963 0.118742 1.51639 0.196101 1.65409 0.333802L7.00156 5.693L12.349 0.333802C12.4874 0.197299 12.6739 0.120765 12.8682 0.120765C13.0626 0.120765 13.2491 0.197299 13.3874 0.333802C13.4556 0.401933 13.5096 0.482887 13.5464 0.571997C13.5831 0.661108 13.6019 0.756611 13.6016 0.853002V0.853002Z" />
		
		</g>
  	 </symbol>
	<symbol id="svg-user" viewBox="0 0 18 18">
		<g>
			<path
				d="M9.00002 17.6533C7.28855 17.6533 5.61552 17.1458 4.19248 16.195C2.76945 15.2442 1.66033 13.8927 1.00538 12.3115C0.350429 10.7303 0.179064 8.99042 0.512955 7.31183C0.846846 5.63325 1.671 4.09138 2.88119 2.88119C4.09138 1.671 5.63325 0.846846 7.31183 0.512955C8.99042 0.179064 10.7303 0.350429 12.3115 1.00538C13.8927 1.66033 15.2442 2.76945 16.195 4.19248C17.1458 5.61552 17.6533 7.28855 17.6533 9.00002C17.651 11.2943 16.7386 13.494 15.1163 15.1163C13.494 16.7386 11.2943 17.651 9.00002 17.6533V17.6533ZM9.00002 1.81335C7.57863 1.81335 6.18916 2.23484 5.00732 3.02452C3.82548 3.8142 2.90434 4.93661 2.3604 6.2498C1.81646 7.56299 1.67414 9.00799 1.95144 10.4021C2.22874 11.7961 2.9132 13.0767 3.91828 14.0818C4.92335 15.0868 6.20389 15.7713 7.59797 16.0486C8.99204 16.3259 10.437 16.1836 11.7502 15.6396C13.0634 15.0957 14.1858 14.1746 14.9755 12.9927C15.7652 11.8109 16.1867 10.4214 16.1867 9.00002C16.1844 7.09471 15.4264 5.2681 14.0792 3.92085C12.7319 2.57359 10.9053 1.81568 9.00002 1.81335V1.81335Z"/>
			<path
				d="M13.1331 15.5149C12.8399 14.6514 12.2836 13.9014 11.5423 13.3702C10.801 12.8391 9.91197 12.5534 9.00002 12.5534C8.08808 12.5534 7.19904 12.8391 6.45775 13.3702C5.71646 13.9014 5.16015 14.6514 4.86696 15.5149L3.47949 15.0427C3.8718 13.8899 4.61511 12.8889 5.60517 12.18C6.59522 11.4711 7.78235 11.09 9.00002 11.09C10.2177 11.09 11.4048 11.4711 12.3949 12.18C13.3849 12.8889 14.1283 13.8899 14.5206 15.0427L13.1331 15.5149Z"
				 />
			<path
				d="M9.00004 10.3405C8.37231 10.3405 7.75867 10.1544 7.23673 9.80564C6.71479 9.45689 6.30799 8.9612 6.06777 8.38125C5.82755 7.8013 5.76469 7.16315 5.88716 6.54748C6.00962 5.93181 6.3119 5.36628 6.75578 4.9224C7.19965 4.47853 7.76518 4.17625 8.38085 4.05378C8.99652 3.93132 9.63468 3.99417 10.2146 4.2344C10.7946 4.47462 11.2903 4.88142 11.639 5.40336C11.9878 5.9253 12.1739 6.53893 12.1739 7.16667C12.1731 8.00819 11.8385 8.81502 11.2434 9.41007C10.6484 10.0051 9.84156 10.3398 9.00004 10.3405V10.3405ZM9.00004 5.45947C8.66239 5.45947 8.33232 5.55959 8.05157 5.74718C7.77082 5.93477 7.55201 6.2014 7.42279 6.51335C7.29358 6.8253 7.25977 7.16856 7.32564 7.49972C7.39152 7.83089 7.55411 8.13508 7.79287 8.37384C8.03162 8.6126 8.33582 8.77519 8.66698 8.84106C8.99815 8.90694 9.34141 8.87313 9.65336 8.74391C9.96531 8.6147 10.2319 8.39588 10.4195 8.11514C10.6071 7.83439 10.7072 7.50432 10.7072 7.16667C10.7065 6.71413 10.5264 6.28034 10.2064 5.96035C9.88636 5.64036 9.45258 5.46024 9.00004 5.45947V5.45947Z" />

		</g>
	 </symbol>
	<symbol id="svg-search" viewBox="0 0 15 16">
		<g>
			<path
				d="M6.05993 12.2C4.94444 12.2 3.854 11.8692 2.92651 11.2495C1.99902 10.6297 1.27612 9.7489 0.849244 8.71832C0.422366 7.68775 0.310675 6.55373 0.528295 5.45968C0.745916 4.36562 1.28307 3.36067 2.07184 2.5719C2.86061 1.78314 3.86556 1.24598 4.95962 1.02836C6.05367 0.810736 7.18768 0.922427 8.21826 1.3493C9.24884 1.77618 10.1297 2.49908 10.7494 3.42657C11.3691 4.35406 11.6999 5.4445 11.6999 6.55999C11.6987 8.05542 11.104 9.48924 10.0466 10.5467C8.98917 11.6041 7.55536 12.1987 6.05993 12.2V12.2ZM6.05993 2.11999C5.18178 2.11999 4.32335 2.38039 3.59319 2.86826C2.86304 3.35613 2.29395 4.04957 1.9579 4.86087C1.62185 5.67218 1.53392 6.56491 1.70524 7.42619C1.87656 8.28746 2.29943 9.0786 2.92037 9.69954C3.54132 10.3205 4.33245 10.7434 5.19372 10.9147C6.055 11.086 6.94774 10.9981 7.75904 10.662C8.57034 10.326 9.26378 9.75687 9.75165 9.02672C10.2395 8.29656 10.4999 7.43814 10.4999 6.55999C10.4987 5.38281 10.0305 4.25422 9.19808 3.42183C8.36569 2.58945 7.2371 2.12126 6.05993 2.11999V2.11999Z"
				/>
			<path
				d="M13.98 15.08C13.9011 15.0803 13.8229 15.0649 13.75 15.0349C13.6771 15.0048 13.6109 14.9606 13.5552 14.9048L9.19915 10.5488C9.08649 10.4361 9.02319 10.2833 9.02319 10.124C9.02319 9.96468 9.08649 9.81188 9.19915 9.69921C9.31182 9.58655 9.46462 9.52325 9.62395 9.52325C9.78328 9.52325 9.93609 9.58655 10.0488 9.69921L14.4048 14.0552C14.5164 14.1684 14.5791 14.321 14.5791 14.48C14.5791 14.639 14.5164 14.7916 14.4048 14.9048C14.349 14.9606 14.2828 15.0048 14.2099 15.0349C14.137 15.0649 14.0588 15.0803 13.98 15.08V15.08Z"
				 />
			
		</g>
	 </symbol>
	<symbol id="svg-link" viewBox="0 0 24 24">
		<g>
			<path
				d="M22.08 14.7254C21.8325 14.7254 21.5951 14.627 21.42 14.452C21.245 14.277 21.1467 14.0396 21.1467 13.792V2.85336H10.208C9.96046 2.85336 9.72306 2.75503 9.54803 2.57999C9.37299 2.40496 9.27466 2.16756 9.27466 1.92003C9.27466 1.67249 9.37299 1.4351 9.54803 1.26006C9.72306 1.08503 9.96046 0.986694 10.208 0.986694L22.08 0.986694C22.3275 0.986694 22.5649 1.08503 22.74 1.26006C22.915 1.4351 23.0133 1.67249 23.0133 1.92003V13.792C23.0133 14.0396 22.915 14.277 22.74 14.452C22.5649 14.627 22.3275 14.7254 22.08 14.7254Z"
				/>
			<path
				d="M1.91997 23.0133C1.7973 23.0137 1.67575 22.9899 1.56233 22.9431C1.44892 22.8963 1.34589 22.8276 1.25917 22.7408C1.08544 22.5647 0.988037 22.3273 0.988037 22.08C0.988037 21.8326 1.08544 21.5952 1.25917 21.4192L21.4192 1.25919C21.5944 1.08393 21.8321 0.985474 22.08 0.985474C22.3278 0.985474 22.5655 1.08393 22.7408 1.25919C22.916 1.43444 23.0145 1.67214 23.0145 1.91999C23.0145 2.16783 22.916 2.40553 22.7408 2.58079L2.58077 22.7408C2.49406 22.8276 2.39103 22.8963 2.27762 22.9431C2.1642 22.9899 2.04265 23.0137 1.91997 23.0133Z"
				/>
		</g>
	 </symbol>
	<symbol id="svg-mail" viewBox="0 0 24 24">
		<g>
			<path
				d="M18.08 20.1601H5.92C5.02913 20.1592 4.17499 19.805 3.54505 19.175C2.91512 18.5451 2.56084 17.691 2.56 16.8001L2.56 7.20009C2.56084 6.30922 2.91512 5.45508 3.54505 4.82514C4.17499 4.19521 5.02913 3.84094 5.92 3.84009L18.08 3.84009C18.9709 3.84094 19.825 4.19521 20.4549 4.82514C21.0849 5.45508 21.4392 6.30922 21.44 7.20009V16.8001C21.4392 17.691 21.0849 18.5451 20.4549 19.175C19.825 19.805 18.9709 20.1592 18.08 20.1601ZM5.92 5.44009C5.45348 5.44093 5.0063 5.62663 4.67642 5.95651C4.34654 6.2864 4.16084 6.73357 4.16 7.20009V16.8001C4.16084 17.2666 4.34654 17.7138 4.67642 18.0437C5.0063 18.3735 5.45348 18.5592 5.92 18.5601H18.08C18.5465 18.5592 18.9937 18.3735 19.3236 18.0437C19.6535 17.7138 19.8392 17.2666 19.84 16.8001V7.20009C19.8392 6.73357 19.6535 6.2864 19.3236 5.95651C18.9937 5.62663 18.5465 5.44093 18.08 5.44009H5.92Z" />
			<path
				d="M12 12.9633C11.4228 12.965 10.8551 12.8173 10.352 12.5345L3.01438 8.40971C2.82936 8.30532 2.69339 8.13171 2.63638 7.92707C2.57937 7.72243 2.60599 7.50353 2.71038 7.31851C2.81476 7.1335 2.98837 6.99753 3.19301 6.94052C3.39765 6.88351 3.61656 6.91012 3.80158 7.01451L11.136 11.1425C11.3999 11.2888 11.6967 11.3655 11.9984 11.3655C12.3001 11.3655 12.5969 11.2888 12.8608 11.1425L20.1984 7.01451C20.29 6.96283 20.3909 6.92969 20.4953 6.91699C20.5997 6.90429 20.7056 6.91229 20.8069 6.94052C20.9083 6.96875 21.003 7.01666 21.0858 7.08151C21.1687 7.14637 21.2379 7.2269 21.2896 7.31851C21.3413 7.41012 21.3744 7.51102 21.3871 7.61543C21.3998 7.71985 21.3918 7.82575 21.3636 7.92707C21.3353 8.0284 21.2874 8.12318 21.2226 8.20599C21.1577 8.2888 21.0772 8.35802 20.9856 8.40971L13.648 12.5345C13.1448 12.8173 12.5771 12.965 12 12.9633Z"/>
		</g>
	 </symbol>
	<symbol id="svg-call" viewBox="0 0 20 20">
		<g>
			<path
				d="M14.0907 17.8666C13.6439 17.8671 13.2027 17.7668 12.8 17.5733C10.5488 16.4911 8.49748 15.0349 6.73334 13.2666C4.96505 11.5025 3.50884 9.45118 2.42668 7.19997C2.15892 6.63705 2.07233 6.00495 2.17883 5.39076C2.28534 4.77658 2.57969 4.21053 3.02134 3.77063L4.46134 2.32797C4.58678 2.20326 4.75647 2.13328 4.93334 2.1333V2.1333C5.11022 2.13328 5.27991 2.20326 5.40534 2.32797L8.83468 5.75997C8.89668 5.82167 8.94588 5.89501 8.97945 5.97578C9.01303 6.05655 9.03031 6.14316 9.03031 6.23063C9.03031 6.31811 9.01303 6.40471 8.97945 6.48549C8.94588 6.56626 8.89668 6.6396 8.83468 6.7013L7.59734 7.93863C8.1388 8.85549 8.79374 9.70038 9.54668 10.4533C10.299 11.2069 11.144 11.8619 12.0613 12.4026L13.2987 11.1653C13.3604 11.1033 13.4337 11.0541 13.5145 11.0205C13.5953 10.987 13.6819 10.9697 13.7693 10.9697C13.8568 10.9697 13.9434 10.987 14.0242 11.0205C14.105 11.0541 14.1783 11.1033 14.24 11.1653L17.672 14.5946C17.7961 14.7204 17.8657 14.89 17.8657 15.0666C17.8657 15.2433 17.7961 15.4129 17.672 15.5386L16.2293 16.9786C15.9487 17.2599 15.6153 17.4831 15.2484 17.6355C14.8814 17.7878 14.488 17.8664 14.0907 17.8666ZM4.93334 3.7333L3.96268 4.71197C3.71648 4.95723 3.55225 5.27271 3.49257 5.61507C3.43288 5.95742 3.48066 6.30986 3.62934 6.62397C4.64616 8.73842 6.01398 10.6653 7.67468 12.3226C9.33272 13.9845 11.2605 15.3532 13.376 16.3706C13.6903 16.5194 14.043 16.5669 14.3855 16.5068C14.7279 16.4466 15.0433 16.2816 15.288 16.0346L16.2667 15.0666L13.7787 12.5786L12.656 13.7013C12.5539 13.8058 12.4204 13.8739 12.2758 13.8951C12.1313 13.9163 11.9838 13.8894 11.856 13.8186C10.659 13.1739 9.5629 12.3572 8.60268 11.3946C7.63931 10.4351 6.82255 9.33889 6.17868 8.1413C6.10788 8.01352 6.08102 7.86602 6.10222 7.72148C6.12342 7.57695 6.19151 7.44337 6.29601 7.3413L7.41868 6.21597L4.93334 3.7333Z" />
		</g>
	 </symbol>
	<symbol id="svg-pin" viewBox="0 0 20 20">
		<g>
			<path
				d="M10 17.8666C9.85575 17.8666 9.7154 17.8198 9.6 17.7333C9.37067 17.56 4 13.4666 4 8.1333C4 6.542 4.63214 5.01588 5.75736 3.89066C6.88258 2.76544 8.4087 2.1333 10 2.1333C11.5913 2.1333 13.1174 2.76544 14.2426 3.89066C15.3679 5.01588 16 6.542 16 8.1333C16 13.4666 10.6293 17.56 10.4 17.7333C10.2846 17.8198 10.1442 17.8666 10 17.8666ZM10 3.46663C8.76276 3.46805 7.57659 3.96016 6.70173 4.83503C5.82686 5.70989 5.33474 6.89606 5.33333 8.1333C5.33333 12 8.8 15.312 10 16.3386C11.2 15.312 14.6667 12 14.6667 8.1333C14.6653 6.89606 14.1731 5.70989 13.2983 4.83503C12.4234 3.96016 11.2372 3.46805 10 3.46663Z"
				 />
			<path
				d="M10 10.6665C9.49896 10.6665 9.00917 10.5179 8.59256 10.2396C8.17596 9.96121 7.85126 9.56556 7.65951 9.10265C7.46777 8.63975 7.4176 8.13038 7.51535 7.63896C7.6131 7.14754 7.85438 6.69614 8.20867 6.34185C8.56297 5.98756 9.01436 5.74628 9.50578 5.64853C9.9972 5.55078 10.5066 5.60095 10.9695 5.79269C11.4324 5.98444 11.828 6.30914 12.1064 6.72574C12.3848 7.14235 12.5333 7.63214 12.5333 8.13319C12.5326 8.80485 12.2655 9.44881 11.7906 9.92375C11.3156 10.3987 10.6717 10.6658 10 10.6665ZM10 6.93319C9.76267 6.93319 9.53066 7.00357 9.33332 7.13542C9.13599 7.26728 8.98218 7.4547 8.89135 7.67397C8.80053 7.89324 8.77676 8.13452 8.82307 8.3673C8.86937 8.60007 8.98366 8.81389 9.15148 8.98172C9.3193 9.14954 9.53312 9.26383 9.7659 9.31013C9.99868 9.35643 10.24 9.33267 10.4592 9.24184C10.6785 9.15102 10.8659 8.99721 10.9978 8.79987C11.1296 8.60253 11.2 8.37053 11.2 8.13319C11.1993 7.81514 11.0726 7.51033 10.8478 7.28544C10.6229 7.06055 10.3181 6.93389 10 6.93319Z"
				/>
		</g>
	 </symbol>
	<symbol id="svg-add" viewBox="0 0 20 20">
		<g>
			
			<path
				d="M18.6401 10.8H1.36006C1.14789 10.8 0.944402 10.7157 0.794373 10.5656C0.644344 10.4156 0.560059 10.2121 0.560059 9.99995C0.560059 9.78778 0.644344 9.58429 0.794373 9.43427C0.944402 9.28424 1.14789 9.19995 1.36006 9.19995H18.6401C18.8522 9.19995 19.0557 9.28424 19.2057 9.43427C19.3558 9.58429 19.4401 9.78778 19.4401 9.99995C19.4401 10.2121 19.3558 10.4156 19.2057 10.5656C19.0557 10.7157 18.8522 10.8 18.6401 10.8Z"
					/>
			<path
				d="M10.0002 19.4401C9.78802 19.4401 9.58454 19.3558 9.43451 19.2057C9.28448 19.0557 9.2002 18.8522 9.2002 18.6401V1.36006C9.2002 1.14789 9.28448 0.944402 9.43451 0.794373C9.58454 0.644344 9.78802 0.560059 10.0002 0.560059C10.2124 0.560059 10.4159 0.644344 10.5659 0.794373C10.7159 0.944402 10.8002 1.14789 10.8002 1.36006V18.6401C10.8002 18.8522 10.7159 19.0557 10.5659 19.2057C10.4159 19.3558 10.2124 19.4401 10.0002 19.4401Z"
					/>
			
		</g>
	 </symbol>
	<symbol id="svg-folder" viewBox="0 0 38 37">
		<g>

			<path
				d="M30.6534 36.5289H7.34674C5.63924 36.5272 4.00215 35.8482 2.79476 34.6408C1.58738 33.4335 0.908362 31.7964 0.906738 30.0889L0.906738 8.6222C0.906738 8.21554 1.06829 7.82553 1.35584 7.53797C1.6434 7.25041 2.03341 7.08887 2.44007 7.08887H30.6534C32.3609 7.09049 33.998 7.76951 35.2054 8.97689C36.4128 10.1843 37.0918 11.8214 37.0934 13.5289V30.0889C37.0918 31.7964 36.4128 33.4335 35.2054 34.6408C33.998 35.8482 32.3609 36.5272 30.6534 36.5289ZM3.9734 10.1555V30.0889C3.97503 30.983 4.33095 31.8401 4.96322 32.4724C5.59549 33.1047 6.45257 33.4606 7.34674 33.4622H30.6534C31.5476 33.4606 32.4046 33.1047 33.0369 32.4724C33.6692 31.8401 34.0251 30.983 34.0267 30.0889V13.5289C34.0251 12.6347 33.6692 11.7776 33.0369 11.1454C32.4046 10.5131 31.5476 10.1572 30.6534 10.1555H3.9734Z"/>
			<path
				d="M20.3862 10.1555H2.44007C2.03341 10.1555 1.6434 9.99394 1.35584 9.70638C1.06829 9.41883 0.906738 9.02882 0.906738 8.62215L0.906738 2.05335C0.906738 1.64669 1.06829 1.25668 1.35584 0.969122C1.6434 0.681567 2.03341 0.52002 2.44007 0.52002L14.4369 0.52002C14.6505 0.520887 14.8616 0.566027 15.0569 0.65259C15.2522 0.739154 15.4274 0.865261 15.5715 1.02295L21.527 7.59175C21.7268 7.81198 21.8583 8.08557 21.9055 8.3792C21.9526 8.67283 21.9133 8.97383 21.7924 9.24553C21.6715 9.51723 21.4742 9.74791 21.2245 9.90948C20.9749 10.071 20.6836 10.1565 20.3862 10.1555ZM3.9734 7.08882H16.927L13.7867 3.58669H3.9734V7.08882Z" />
			<path
				d="M22.0669 19.7664H12.2535C11.8469 19.7664 11.4569 19.6048 11.1693 19.3173C10.8818 19.0297 10.7202 18.6397 10.7202 18.233C10.7202 17.8264 10.8818 17.4364 11.1693 17.1488C11.4569 16.8613 11.8469 16.6997 12.2535 16.6997H22.0669C22.4735 16.6997 22.8636 16.8613 23.1511 17.1488C23.4387 17.4364 23.6002 17.8264 23.6002 18.233C23.6002 18.6397 23.4387 19.0297 23.1511 19.3173C22.8636 19.6048 22.4735 19.7664 22.0669 19.7664Z" />
			<path
				d="M26.3603 27.5066H11.6403C11.2336 27.5066 10.8436 27.3451 10.556 27.0575C10.2685 26.77 10.1069 26.3799 10.1069 25.9733C10.1069 25.5666 10.2685 25.1766 10.556 24.889C10.8436 24.6015 11.2336 24.4399 11.6403 24.4399H26.3603C26.7669 24.4399 27.1569 24.6015 27.4445 24.889C27.7321 25.1766 27.8936 25.5666 27.8936 25.9733C27.8936 26.3799 27.7321 26.77 27.4445 27.0575C27.1569 27.3451 26.7669 27.5066 26.3603 27.5066Z" />
			
		</g>
	 </symbol>
</svg>