<svg style="width:0; height:0; visibility: hidden;" xmlns="http://www.w3.org/2000/svg">
	<!-- plus -->
	<symbol id="svg-plus" viewBox="0 0 24 24">
		<g>

			<path
				d="M12 23.0132C9.8218 23.0132 7.69249 22.3673 5.88135 21.1572C4.07022 19.947 2.65861 18.227 1.82504 16.2145C0.991466 14.2021 0.773366 11.9877 1.19832 9.85132C1.62327 7.71494 2.67219 5.75255 4.21243 4.21231C5.75267 2.67207 7.71506 1.62315 9.85144 1.1982C11.9878 0.773243 14.2022 0.991344 16.2147 1.82492C18.2271 2.65849 19.9471 4.0701 21.1573 5.88123C22.3674 7.69236 23.0134 9.82168 23.0134 11.9999C23.0104 14.9199 21.8491 17.7195 19.7844 19.7842C17.7196 21.849 14.92 23.0103 12 23.0132ZM12 2.85324C10.191 2.85324 8.42258 3.38969 6.91842 4.39474C5.41426 5.39978 4.2419 6.8283 3.54961 8.49963C2.85733 10.171 2.67619 12.0101 3.02912 13.7843C3.38204 15.5586 4.25318 17.1884 5.53236 18.4676C6.81155 19.7468 8.44133 20.6179 10.2156 20.9708C11.9899 21.3238 13.829 21.1426 15.5003 20.4503C17.1716 19.758 18.6002 18.5857 19.6052 17.0815C20.6103 15.5774 21.1467 13.809 21.1467 11.9999C21.1437 9.57497 20.1791 7.2502 18.4644 5.53551C16.7497 3.82082 14.425 2.85621 12 2.85324Z"
			/>
			<path
				d="M17.2268 12.9333H6.77342C6.52589 12.9333 6.28849 12.835 6.11345 12.66C5.93842 12.4849 5.84009 12.2475 5.84009 12C5.84009 11.7524 5.93842 11.5151 6.11345 11.34C6.28849 11.165 6.52589 11.0667 6.77342 11.0667H17.2268C17.4743 11.0667 17.7117 11.165 17.8867 11.34C18.0618 11.5151 18.1601 11.7524 18.1601 12C18.1601 12.2475 18.0618 12.4849 17.8867 12.66C17.7117 12.835 17.4743 12.9333 17.2268 12.9333Z"
			/>
			<path
				d="M12 18.1598C11.7524 18.1598 11.5151 18.0615 11.34 17.8865C11.165 17.7114 11.0667 17.474 11.0667 17.2265V6.77318C11.0667 6.52564 11.165 6.28824 11.34 6.11321C11.5151 5.93818 11.7524 5.83984 12 5.83984C12.2475 5.83984 12.4849 5.93818 12.66 6.11321C12.835 6.28824 12.9333 6.52564 12.9333 6.77318V17.2265C12.9333 17.474 12.835 17.7114 12.66 17.8865C12.4849 18.0615 12.2475 18.1598 12 18.1598Z"
			/>
			
		</g>
	</symbol>
	<!-- icon cross -->
	<symbol id="svg-cross" viewBox="0 0 14 13">
		<g>

			<path
				d="M7 12.7933C5.7553 12.7933 4.53855 12.4242 3.50361 11.7327C2.46868 11.0412 1.66205 10.0583 1.18572 8.90835C0.709392 7.7584 0.584763 6.49302 0.827593 5.27223C1.07042 4.05145 1.6698 2.93008 2.54994 2.04994C3.43008 1.1698 4.55145 0.570422 5.77223 0.327593C6.99302 0.0847629 8.2584 0.209392 9.40835 0.685719C10.5583 1.16205 11.5412 1.96868 12.2327 3.00361C12.9242 4.03855 13.2933 5.2553 13.2933 6.5C13.2916 8.16858 12.628 9.76833 11.4482 10.9482C10.2683 12.128 8.66858 12.7916 7 12.7933ZM7 1.27333C5.96626 1.27333 4.95574 1.57987 4.09622 2.15419C3.2367 2.7285 2.56678 3.54479 2.17119 4.49984C1.7756 5.45489 1.67209 6.5058 1.87376 7.51967C2.07544 8.53355 2.57323 9.46485 3.30419 10.1958C4.03515 10.9268 4.96645 11.4246 5.98033 11.6262C6.9942 11.8279 8.04511 11.7244 9.00016 11.3288C9.95521 10.9332 10.7715 10.2633 11.3458 9.40378C11.9201 8.54426 12.2267 7.53374 12.2267 6.5C12.225 5.11432 11.6738 3.78588 10.6939 2.80606C9.71412 1.82624 8.38568 1.27503 7 1.27333Z"
			/>
			<path
				d="M4.86664 9.16665C4.79654 9.16689 4.72708 9.15325 4.66228 9.12653C4.59747 9.0998 4.53859 9.06051 4.48904 9.01092C4.38977 8.91031 4.33411 8.77466 4.33411 8.63332C4.33411 8.49198 4.38977 8.35632 4.48904 8.25572L8.75571 3.98905C8.85585 3.8889 8.99168 3.83264 9.13331 3.83264C9.27494 3.83264 9.41076 3.8889 9.51091 3.98905C9.61105 4.08919 9.66732 4.22502 9.66732 4.36665C9.66732 4.50828 9.61105 4.6441 9.51091 4.74425L5.24424 9.01092C5.19469 9.06051 5.13582 9.0998 5.07101 9.12653C5.0062 9.15325 4.93674 9.16689 4.86664 9.16665Z"
			/>
			<path
				d="M9.13332 9.16665C9.06321 9.16689 8.99376 9.15325 8.92895 9.12653C8.86414 9.0998 8.80527 9.06051 8.75571 9.01092L4.48905 4.74425C4.3889 4.6441 4.33264 4.50828 4.33264 4.36665C4.33264 4.22502 4.3889 4.08919 4.48905 3.98905C4.58919 3.8889 4.72502 3.83264 4.86665 3.83264C5.00828 3.83264 5.1441 3.8889 5.24425 3.98905L9.51092 8.25572C9.61019 8.35632 9.66585 8.49198 9.66585 8.63332C9.66585 8.77466 9.61019 8.91031 9.51092 9.01092C9.46137 9.06051 9.40249 9.0998 9.33768 9.12653C9.27287 9.15325 9.20342 9.16689 9.13332 9.16665Z"
			/>
		</g>
	</symbol>

	<symbol id="svg-down" viewBox="0 0 14 8">
		<g>

			<path
				d="M13.6016 0.853002C13.6019 0.949393 13.5831 1.0449 13.5464 1.13401C13.5096 1.22312 13.4556 1.30407 13.3874 1.3722L7.52076 7.23887C7.38243 7.37537 7.1959 7.4519 7.00156 7.4519C6.80722 7.4519 6.62069 7.37537 6.48236 7.23887L0.615694 1.3722C0.477994 1.2345 0.400635 1.04774 0.400635 0.853002C0.400635 0.658264 0.477994 0.471502 0.615694 0.333802C0.753395 0.196101 0.940157 0.118742 1.13489 0.118742C1.32963 0.118742 1.51639 0.196101 1.65409 0.333802L7.00156 5.693L12.349 0.333802C12.4874 0.197299 12.6739 0.120765 12.8682 0.120765C13.0626 0.120765 13.2491 0.197299 13.3874 0.333802C13.4556 0.401933 13.5096 0.482887 13.5464 0.571997C13.5831 0.661108 13.6019 0.756611 13.6016 0.853002V0.853002Z" />
		
		</g>
  	 </symbol>
	<symbol id="svg-user" viewBox="0 0 18 18">
		<g>
			<path
				d="M9.00002 17.6533C7.28855 17.6533 5.61552 17.1458 4.19248 16.195C2.76945 15.2442 1.66033 13.8927 1.00538 12.3115C0.350429 10.7303 0.179064 8.99042 0.512955 7.31183C0.846846 5.63325 1.671 4.09138 2.88119 2.88119C4.09138 1.671 5.63325 0.846846 7.31183 0.512955C8.99042 0.179064 10.7303 0.350429 12.3115 1.00538C13.8927 1.66033 15.2442 2.76945 16.195 4.19248C17.1458 5.61552 17.6533 7.28855 17.6533 9.00002C17.651 11.2943 16.7386 13.494 15.1163 15.1163C13.494 16.7386 11.2943 17.651 9.00002 17.6533V17.6533ZM9.00002 1.81335C7.57863 1.81335 6.18916 2.23484 5.00732 3.02452C3.82548 3.8142 2.90434 4.93661 2.3604 6.2498C1.81646 7.56299 1.67414 9.00799 1.95144 10.4021C2.22874 11.7961 2.9132 13.0767 3.91828 14.0818C4.92335 15.0868 6.20389 15.7713 7.59797 16.0486C8.99204 16.3259 10.437 16.1836 11.7502 15.6396C13.0634 15.0957 14.1858 14.1746 14.9755 12.9927C15.7652 11.8109 16.1867 10.4214 16.1867 9.00002C16.1844 7.09471 15.4264 5.2681 14.0792 3.92085C12.7319 2.57359 10.9053 1.81568 9.00002 1.81335V1.81335Z"/>
			<path
				d="M13.1331 15.5149C12.8399 14.6514 12.2836 13.9014 11.5423 13.3702C10.801 12.8391 9.91197 12.5534 9.00002 12.5534C8.08808 12.5534 7.19904 12.8391 6.45775 13.3702C5.71646 13.9014 5.16015 14.6514 4.86696 15.5149L3.47949 15.0427C3.8718 13.8899 4.61511 12.8889 5.60517 12.18C6.59522 11.4711 7.78235 11.09 9.00002 11.09C10.2177 11.09 11.4048 11.4711 12.3949 12.18C13.3849 12.8889 14.1283 13.8899 14.5206 15.0427L13.1331 15.5149Z"
				 />
			<path
				d="M9.00004 10.3405C8.37231 10.3405 7.75867 10.1544 7.23673 9.80564C6.71479 9.45689 6.30799 8.9612 6.06777 8.38125C5.82755 7.8013 5.76469 7.16315 5.88716 6.54748C6.00962 5.93181 6.3119 5.36628 6.75578 4.9224C7.19965 4.47853 7.76518 4.17625 8.38085 4.05378C8.99652 3.93132 9.63468 3.99417 10.2146 4.2344C10.7946 4.47462 11.2903 4.88142 11.639 5.40336C11.9878 5.9253 12.1739 6.53893 12.1739 7.16667C12.1731 8.00819 11.8385 8.81502 11.2434 9.41007C10.6484 10.0051 9.84156 10.3398 9.00004 10.3405V10.3405ZM9.00004 5.45947C8.66239 5.45947 8.33232 5.55959 8.05157 5.74718C7.77082 5.93477 7.55201 6.2014 7.42279 6.51335C7.29358 6.8253 7.25977 7.16856 7.32564 7.49972C7.39152 7.83089 7.55411 8.13508 7.79287 8.37384C8.03162 8.6126 8.33582 8.77519 8.66698 8.84106C8.99815 8.90694 9.34141 8.87313 9.65336 8.74391C9.96531 8.6147 10.2319 8.39588 10.4195 8.11514C10.6071 7.83439 10.7072 7.50432 10.7072 7.16667C10.7065 6.71413 10.5264 6.28034 10.2064 5.96035C9.88636 5.64036 9.45258 5.46024 9.00004 5.45947V5.45947Z" />

		</g>
	 </symbol>


</svg>