<?xml version="1.0" standalone="no"?>
<!DOCTYPE svg PUBLIC "-//W3C//DTD SVG 20010904//EN"
 "http://www.w3.org/TR/2001/REC-SVG-20010904/DTD/svg10.dtd">
<svg version="1.0" xmlns="http://www.w3.org/2000/svg"
 width="150.000000pt" height="150.000000pt" viewBox="0 0 150.000000 150.000000"
 preserveAspectRatio="xMidYMid meet">
<metadata>
Created by potrace 1.14, written by Peter Selinger 2001-2017
</metadata>
<g transform="translate(0.000000,150.000000) scale(0.100000,-0.100000)"
fill="#000000" stroke="none">
<path d="M600 1485 c-290 -60 -517 -286 -584 -583 -18 -80 -14 -256 8 -338 63
-238 248 -441 473 -519 93 -32 112 -36 233 -40 368 -14 684 240 758 610 8 40
8 221 1 265 -48 269 -243 493 -507 582 -72 25 -107 30 -202 33 -70 2 -140 -2
-180 -10z"/>
</g>
</svg>
